<svg width="98" height="71" viewBox="0 0 98 71" fill="none" xmlns="http://www.w3.org/2000/svg">
<path d="M12.93 25.26C12.93 23.88 12.28 23.19 10.98 23.19C10.8 23.19 10.58 23.21 10.32 23.25C10.06 23.27 9.88 23.2 9.78 23.04C9.62 22.82 9.88 22.67 10.56 22.59C10.8 22.55 11.04 22.53 11.28 22.53C12.44 22.53 13.23 23.03 13.65 24.03C13.83 24.45 13.92 24.99 13.92 25.65C13.92 26.29 13.64 27.1 13.08 28.08C12.1 29.86 10.56 31.19 8.46 32.07C7.76 32.37 7.03 32.52 6.27 32.52C5.53 32.52 4.76 32.33 3.96 31.95C2.48 31.25 1.45 30.08 0.87 28.44C0.65 27.8 0.54 27 0.54 26.04C0.54 25.06 0.81 23.83 1.35 22.35C2.59 19.45 4.63 16.98 7.47 14.94C10.51 12.74 13.35 11.64 15.99 11.64C18.23 11.64 19.73 12.54 20.49 14.34C20.83 15.12 21 16.06 21 17.16C21 17.52 20.98 17.89 20.94 18.27C20.74 20.01 20.22 22 19.38 24.24C19.24 24.62 19.17 24.88 19.17 25.02C19.17 25.14 19.2 25.2 19.26 25.2C19.36 25.22 19.53 25.01 19.77 24.57C21.25 21.87 22.88 19.45 24.66 17.31C25.24 16.61 25.94 16.04 26.76 15.6C27.66 15.12 28.46 14.88 29.16 14.88C29.88 14.88 30.44 15.14 30.84 15.66C31.26 16.18 31.47 16.87 31.47 17.73C31.47 19.75 30.68 23.12 29.1 27.84C28.78 28.78 28.58 29.38 28.5 29.64C30.12 27.1 32.15 24.31 34.59 21.27C37.05 18.21 39.23 16.4 41.13 15.84C41.47 15.74 41.77 15.69 42.03 15.69C42.79 15.69 43.28 16.07 43.5 16.83C43.58 17.09 43.62 17.39 43.62 17.73C43.62 18.75 43.22 20.06 42.42 21.66C40.78 24.94 39.66 27.55 39.06 29.49C38.24 32.05 37.83 33.8 37.83 34.74C37.83 35.68 37.92 36.46 38.1 37.08C38.46 38.32 39.41 38.94 40.95 38.94C41.03 38.94 41.19 38.93 41.43 38.91C41.69 38.91 41.83 38.96 41.85 39.06C41.89 39.16 41.82 39.25 41.64 39.33C41.48 39.41 41.31 39.45 41.13 39.45C40.97 39.45 40.84 39.44 40.74 39.42C37.58 39.1 36 37.48 36 34.56C36 33.5 36.21 32.3 36.63 30.96C37.07 29.6 37.44 28.56 37.74 27.84C38.22 26.68 39.23 24.41 40.77 21.03C41.31 19.77 41.58 18.81 41.58 18.15C41.58 17.49 41.3 17.16 40.74 17.16C39.96 17.16 38.75 17.96 37.11 19.56C36.27 20.4 35.36 21.43 34.38 22.65C33.4 23.85 31.95 25.97 30.03 29.01C28.11 32.03 26.89 34.16 26.37 35.4C25.91 36.48 25.3 37.02 24.54 37.02C24 37.02 23.68 36.83 23.58 36.45C23.52 36.29 23.52 36.16 23.58 36.06C23.64 35.98 23.83 35.65 24.15 35.07C24.47 34.49 24.8 33.88 25.14 33.24C25.48 32.6 25.88 31.73 26.34 30.63C26.82 29.53 27.26 28.41 27.66 27.27C28.62 24.45 29.27 21.55 29.61 18.57C29.65 18.23 29.67 17.81 29.67 17.31C29.67 16.79 29.53 16.38 29.25 16.08C28.99 15.78 28.71 15.63 28.41 15.63C27.43 15.63 26.35 16.37 25.17 17.85C23.57 19.83 22.18 21.78 21 23.7C19.82 25.6 18.91 27.2 18.27 28.5C17.65 29.8 16.92 31.37 16.08 33.21C15.26 35.03 14.82 36 14.76 36.12C14.72 36.24 14.65 36.39 14.55 36.57C14.47 36.75 14.4 36.92 14.34 37.08C14.08 37.66 13.52 37.95 12.66 37.95C12.16 37.95 11.89 37.79 11.85 37.47C11.85 37.41 11.86 37.34 11.88 37.26C13.2 35.22 14.66 32.13 16.26 27.99C18.3 22.75 19.32 18.93 19.32 16.53C19.32 13.67 18.14 12.24 15.78 12.24C14.26 12.24 12.34 12.97 10.02 14.43C7.72 15.89 5.81 17.76 4.29 20.04C3.69 20.94 3.24 21.81 2.94 22.65C2.42 24.19 2.16 25.41 2.16 26.31C2.16 28.89 3.02 30.59 4.74 31.41C5.34 31.71 5.95 31.86 6.57 31.86C8.73 31.86 10.5 30.69 11.88 28.35C12.58 27.17 12.93 26.14 12.93 25.26ZM50.703 27.87C50.343 28.23 49.833 29.05 49.173 30.33C48.513 31.59 48.113 32.54 47.973 33.18C47.853 33.8 47.793 34.31 47.793 34.71C47.793 35.09 47.943 35.28 48.243 35.28C48.623 35.28 49.093 34.93 49.653 34.23C50.473 33.21 51.283 31.88 52.083 30.24C52.163 30.06 52.253 29.96 52.353 29.94C52.513 29.88 52.593 29.94 52.593 30.12C52.593 30.22 52.563 30.34 52.503 30.48C50.663 34.2 49.113 36.06 47.853 36.06C47.273 36.06 46.803 35.78 46.443 35.22C46.263 34.92 46.173 34.52 46.173 34.02C46.173 33.52 46.273 32.91 46.473 32.19C44.873 34.77 43.493 36.06 42.333 36.06C42.013 36.06 41.723 35.96 41.463 35.76C40.863 35.34 40.563 34.62 40.563 33.6C40.563 31.64 41.413 29.65 43.113 27.63C44.073 26.51 45.253 25.78 46.653 25.44C47.033 25.34 47.393 25.29 47.733 25.29C48.653 25.29 49.433 25.61 50.073 26.25C50.273 26.47 50.333 26.68 50.253 26.88C50.173 27.08 50.003 27.16 49.743 27.12C49.523 26.4 49.043 26.04 48.303 26.04C47.443 26.04 46.383 26.72 45.123 28.08C44.403 28.88 43.733 29.82 43.113 30.9C42.333 32.2 41.943 33.24 41.943 34.02C41.943 34.8 42.193 35.19 42.693 35.19C43.893 35.19 45.463 33.35 47.403 29.67C47.783 28.93 48.103 28.43 48.363 28.17C48.623 27.89 48.953 27.75 49.353 27.75C49.433 27.75 49.633 27.78 49.953 27.84C50.293 27.9 50.543 27.91 50.703 27.87ZM54.6513 35.43C54.9113 35.47 55.0913 35.49 55.1913 35.49C55.9913 35.49 56.7813 35.02 57.5613 34.08C57.9813 33.56 58.7313 32.25 59.8113 30.15C59.8513 30.05 59.9213 30 60.0213 30C60.2013 29.98 60.2913 30.05 60.2913 30.21C60.2913 30.25 60.2413 30.37 60.1413 30.57C60.0613 30.75 59.9813 30.94 59.9013 31.14C59.8213 31.32 59.6913 31.59 59.5113 31.95C59.3313 32.31 59.1713 32.6 59.0313 32.82C58.9113 33.04 58.7513 33.31 58.5513 33.63C58.3513 33.95 58.1513 34.2 57.9513 34.38L57.3213 35.04C56.9813 35.38 56.5813 35.62 56.1213 35.76C55.3813 36 54.6613 36.02 53.9613 35.82C53.5013 36.02 53.0913 36.12 52.7313 36.12C51.3113 36.12 50.4513 35.56 50.1513 34.44C50.0913 34.18 50.0613 33.87 50.0613 33.51C50.0613 33.13 50.1813 32.77 50.4213 32.43C50.6813 32.09 50.9513 31.91 51.2313 31.89C52.2513 29.95 53.1213 28.2 53.8413 26.64C54.6413 24.94 55.5713 24.09 56.6313 24.09C56.9113 24.09 57.1813 24.16 57.4413 24.3C57.7213 24.42 57.8213 24.56 57.7413 24.72C57.6813 24.88 57.5413 24.91 57.3213 24.81C57.1013 24.71 56.9113 24.66 56.7513 24.66C56.5913 24.66 56.4513 24.69 56.3313 24.75C55.6513 25.07 55.3113 25.76 55.3113 26.82C55.3113 27.38 55.3913 27.84 55.5513 28.2C55.7113 28.56 55.8913 28.95 56.0913 29.37C56.5513 30.41 56.7813 31.26 56.7813 31.92C56.7813 32.58 56.5713 33.23 56.1513 33.87C55.7313 34.51 55.2313 35.03 54.6513 35.43ZM53.6313 35.22C54.5113 34.54 54.9513 33.44 54.9513 31.92C54.9513 31.3 54.8813 30.45 54.7413 29.37C54.6013 28.29 54.5313 27.56 54.5313 27.18C54.5313 26.8 54.5413 26.54 54.5613 26.4C53.0413 29.44 52.1013 31.29 51.7413 31.95C52.1613 31.95 52.3713 32.25 52.3713 32.85C52.3713 34.03 52.7913 34.82 53.6313 35.22ZM51.3813 34.41C51.3813 34.53 51.3913 34.66 51.4113 34.8C51.5713 35.34 51.9413 35.61 52.5213 35.61C52.7613 35.61 52.9613 35.57 53.1213 35.49C52.3813 35.03 51.9813 34.28 51.9213 33.24C51.5613 33.6 51.3813 33.99 51.3813 34.41ZM62.3271 35.43C62.5871 35.47 62.7671 35.49 62.8671 35.49C63.6671 35.49 64.4571 35.02 65.2371 34.08C65.6571 33.56 66.4071 32.25 67.4871 30.15C67.5271 30.05 67.5971 30 67.6971 30C67.8771 29.98 67.9671 30.05 67.9671 30.21C67.9671 30.25 67.9171 30.37 67.8171 30.57C67.7371 30.75 67.6571 30.94 67.5771 31.14C67.4971 31.32 67.3671 31.59 67.1871 31.95C67.0071 32.31 66.8471 32.6 66.7071 32.82C66.5871 33.04 66.4271 33.31 66.2271 33.63C66.0271 33.95 65.8271 34.2 65.6271 34.38L64.9971 35.04C64.6571 35.38 64.2571 35.62 63.7971 35.76C63.0571 36 62.3371 36.02 61.6371 35.82C61.1771 36.02 60.7671 36.12 60.4071 36.12C58.9871 36.12 58.1271 35.56 57.8271 34.44C57.7671 34.18 57.7371 33.87 57.7371 33.51C57.7371 33.13 57.8571 32.77 58.0971 32.43C58.3571 32.09 58.6271 31.91 58.9071 31.89C59.9271 29.95 60.7971 28.2 61.5171 26.64C62.3171 24.94 63.2471 24.09 64.3071 24.09C64.5871 24.09 64.8571 24.16 65.1171 24.3C65.3971 24.42 65.4971 24.56 65.4171 24.72C65.3571 24.88 65.2171 24.91 64.9971 24.81C64.7771 24.71 64.5871 24.66 64.4271 24.66C64.2671 24.66 64.1271 24.69 64.0071 24.75C63.3271 25.07 62.9871 25.76 62.9871 26.82C62.9871 27.38 63.0671 27.84 63.2271 28.2C63.3871 28.56 63.5671 28.95 63.7671 29.37C64.2271 30.41 64.4571 31.26 64.4571 31.92C64.4571 32.58 64.2471 33.23 63.8271 33.87C63.4071 34.51 62.9071 35.03 62.3271 35.43ZM61.3071 35.22C62.1871 34.54 62.6271 33.44 62.6271 31.92C62.6271 31.3 62.5571 30.45 62.4171 29.37C62.2771 28.29 62.2071 27.56 62.2071 27.18C62.2071 26.8 62.2171 26.54 62.2371 26.4C60.7171 29.44 59.7771 31.29 59.4171 31.95C59.8371 31.95 60.0471 32.25 60.0471 32.85C60.0471 34.03 60.4671 34.82 61.3071 35.22ZM59.0571 34.41C59.0571 34.53 59.0671 34.66 59.0871 34.8C59.2471 35.34 59.6171 35.61 60.1971 35.61C60.4371 35.61 60.6371 35.57 60.7971 35.49C60.0571 35.03 59.6571 34.28 59.5971 33.24C59.2371 33.6 59.0571 33.99 59.0571 34.41ZM76.5429 27.87C76.1829 28.23 75.6729 29.05 75.0129 30.33C74.3529 31.59 73.9529 32.54 73.8129 33.18C73.6929 33.8 73.6329 34.31 73.6329 34.71C73.6329 35.09 73.7829 35.28 74.0829 35.28C74.4629 35.28 74.9329 34.93 75.4929 34.23C76.3129 33.21 77.1229 31.88 77.9229 30.24C78.0029 30.06 78.0929 29.96 78.1929 29.94C78.3529 29.88 78.4329 29.94 78.4329 30.12C78.4329 30.22 78.4029 30.34 78.3429 30.48C76.5029 34.2 74.9529 36.06 73.6929 36.06C73.1129 36.06 72.6429 35.78 72.2829 35.22C72.1029 34.92 72.0129 34.52 72.0129 34.02C72.0129 33.52 72.1129 32.91 72.3129 32.19C70.7129 34.77 69.3329 36.06 68.1729 36.06C67.8529 36.06 67.5629 35.96 67.3029 35.76C66.7029 35.34 66.4029 34.62 66.4029 33.6C66.4029 31.64 67.2529 29.65 68.9529 27.63C69.9129 26.51 71.0929 25.78 72.4929 25.44C72.8729 25.34 73.2329 25.29 73.5729 25.29C74.4929 25.29 75.2729 25.61 75.9129 26.25C76.1129 26.47 76.1729 26.68 76.0929 26.88C76.0129 27.08 75.8429 27.16 75.5829 27.12C75.3629 26.4 74.8829 26.04 74.1429 26.04C73.2829 26.04 72.2229 26.72 70.9629 28.08C70.2429 28.88 69.5729 29.82 68.9529 30.9C68.1729 32.2 67.7829 33.24 67.7829 34.02C67.7829 34.8 68.0329 35.19 68.5329 35.19C69.7329 35.19 71.3029 33.35 73.2429 29.67C73.6229 28.93 73.9429 28.43 74.2029 28.17C74.4629 27.89 74.7929 27.75 75.1929 27.75C75.2729 27.75 75.4729 27.78 75.7929 27.84C76.1329 27.9 76.3829 27.91 76.5429 27.87ZM75.8412 45.48C73.9612 45.48 73.0212 44.71 73.0212 43.17C73.0212 41.89 73.8912 40.74 75.6312 39.72C77.1112 38.86 79.0012 38.05 81.3012 37.29C82.3612 36.95 83.1312 36.68 83.6112 36.48C84.1312 34.96 84.3912 33.3 84.3912 31.5C84.3912 31.14 84.3712 30.87 84.3312 30.69C83.7712 31.83 83.0012 33 82.0212 34.2C80.8612 35.64 79.7112 36.2 78.5712 35.88C77.5312 35.44 77.0112 34.58 77.0112 33.3C77.0112 31.58 77.8712 29.69 79.5912 27.63C80.5312 26.51 81.6312 25.8 82.8912 25.5C83.2312 25.4 83.5712 25.35 83.9112 25.35C84.8112 25.35 85.6912 25.65 86.5512 26.25C86.8712 26.51 87.0312 26.73 87.0312 26.91C87.0312 27.09 86.9712 27.27 86.8512 27.45C86.7312 27.61 86.6012 27.63 86.4612 27.51C86.3412 27.37 86.2612 27.24 86.2212 27.12C85.9612 26.38 85.5412 26.01 84.9612 26.01C83.9012 26.01 82.7112 26.75 81.3912 28.23C80.6512 29.07 80.0112 29.97 79.4712 30.93C78.8112 32.13 78.4812 33.06 78.4812 33.72C78.4812 34.36 78.6812 34.79 79.0812 35.01C79.2212 35.07 79.3612 35.1 79.5012 35.1C79.9612 35.1 80.5312 34.79 81.2112 34.17C81.9112 33.53 82.5512 32.73 83.1312 31.77C83.7312 30.79 84.1112 30.03 84.2712 29.49C84.4312 28.95 84.6212 28.61 84.8412 28.47C85.0812 28.33 85.3412 28.25 85.6212 28.23C85.9012 28.21 86.0912 28.16 86.1912 28.08C86.3512 28.98 86.4312 30.04 86.4312 31.26C86.4312 32.46 86.2212 33.83 85.8012 35.37C86.7212 34.71 87.3712 34.12 87.7512 33.6C88.1512 33.08 88.4612 32.61 88.6812 32.19C88.9212 31.77 89.1312 31.36 89.3112 30.96C89.4912 30.54 89.6112 30.27 89.6712 30.15C89.7312 30.03 89.8312 29.96 89.9712 29.94C90.1112 29.9 90.1812 29.96 90.1812 30.12C90.1812 30.22 90.1512 30.34 90.0912 30.48C89.2112 32.3 88.4712 33.62 87.8712 34.44C87.2912 35.24 86.4912 35.88 85.4712 36.36C84.9912 37.72 84.2912 39.07 83.3712 40.41C82.4712 41.75 81.3312 42.93 79.9512 43.95C78.5712 44.97 77.2012 45.48 75.8412 45.48ZM73.6512 43.74C73.6512 44.5 74.1412 44.88 75.1212 44.88C75.7012 44.88 76.3512 44.71 77.0712 44.37C77.8112 44.03 78.4212 43.68 78.9012 43.32C79.7212 42.66 80.6212 41.68 81.6012 40.38C82.3412 39.34 82.9112 38.33 83.3112 37.35L82.2612 37.71C79.1412 38.79 76.9412 39.75 75.6612 40.59C74.7212 41.21 74.1012 42 73.8012 42.96C73.7012 43.26 73.6512 43.52 73.6512 43.74ZM90.9792 31.38C90.6992 32.06 90.5592 32.82 90.5592 33.66C90.5592 34.22 90.6792 34.67 90.9192 35.01C91.1792 35.33 91.5392 35.49 91.9992 35.49C93.8192 35.49 95.4692 33.78 96.9492 30.36C97.0892 30.04 97.2592 29.9 97.4592 29.94C97.5392 29.96 97.5792 30.01 97.5792 30.09C97.5792 30.17 97.3492 30.7 96.8892 31.68C96.4492 32.64 95.9992 33.42 95.5392 34.02C94.5192 35.42 93.2592 36.12 91.7592 36.12C90.9592 36.12 90.2792 35.86 89.7192 35.34C89.1592 34.82 88.8792 34.11 88.8792 33.21C88.8792 32.31 89.0892 31.36 89.5092 30.36C89.9492 29.34 90.5392 28.4 91.2792 27.54C92.0192 26.66 92.8692 26.02 93.8292 25.62C94.2892 25.42 94.7292 25.32 95.1492 25.32C95.5692 25.32 95.9592 25.44 96.3192 25.68C96.6592 25.96 96.8292 26.27 96.8292 26.61C96.8292 27.81 96.1092 28.96 94.6692 30.06C94.2292 30.4 93.6092 30.71 92.8092 30.99C92.0092 31.25 91.3992 31.38 90.9792 31.38ZM96.0192 26.58C96.0192 26.18 95.8592 25.98 95.5392 25.98C94.9792 25.98 94.1292 26.67 92.9892 28.05C92.3092 28.89 91.7092 29.83 91.1892 30.87C91.5292 30.87 92.0192 30.75 92.6592 30.51C93.3192 30.27 93.8892 29.95 94.3692 29.55C95.4692 28.61 96.0192 27.62 96.0192 26.58Z" fill="white"/>
<path d="M16.944 52.848C17.1787 52.8693 17.344 52.9333 17.44 53.04C17.5467 53.136 17.6 53.2747 17.6 53.456C17.6 53.6693 17.5147 53.8347 17.344 53.952C17.184 54.0587 16.944 54.1013 16.624 54.08L16.192 54.048C15.328 53.984 14.6827 53.7227 14.256 53.264C13.8293 52.7947 13.616 52.1067 13.616 51.2V47.44H12.656C12.1867 47.44 11.952 47.232 11.952 46.816C11.952 46.624 12.0107 46.4747 12.128 46.368C12.256 46.2507 12.432 46.192 12.656 46.192H13.616V44.544C13.616 44.2987 13.6853 44.1067 13.824 43.968C13.9733 43.8293 14.1707 43.76 14.416 43.76C14.6613 43.76 14.8587 43.8293 15.008 43.968C15.1573 44.1067 15.232 44.2987 15.232 44.544V46.192H16.816C17.04 46.192 17.2107 46.2507 17.328 46.368C17.456 46.4747 17.52 46.624 17.52 46.816C17.52 47.0187 17.456 47.1733 17.328 47.28C17.2107 47.3867 17.04 47.44 16.816 47.44H15.232V51.312C15.232 51.8133 15.3333 52.1813 15.536 52.416C15.7493 52.6507 16.0693 52.784 16.496 52.816L16.944 52.848ZM22.9846 46C24.8406 46 25.7686 47.0507 25.7686 49.152V53.312C25.7686 53.5467 25.694 53.7333 25.5446 53.872C25.3953 54.0107 25.198 54.08 24.9526 54.08C24.7073 54.08 24.51 54.0107 24.3606 53.872C24.222 53.7333 24.1526 53.5467 24.1526 53.312V49.168C24.1526 48.528 24.0193 48.0587 23.7526 47.76C23.4966 47.4613 23.0913 47.312 22.5366 47.312C21.886 47.312 21.3633 47.5147 20.9686 47.92C20.574 48.3253 20.3766 48.8693 20.3766 49.552V53.312C20.3766 53.5467 20.302 53.7333 20.1526 53.872C20.014 54.0107 19.822 54.08 19.5766 54.08C19.3313 54.08 19.134 54.0107 18.9846 53.872C18.8353 53.7333 18.7606 53.5467 18.7606 53.312V43.408C18.7606 43.1733 18.8353 42.9867 18.9846 42.848C19.1446 42.7093 19.3473 42.64 19.5926 42.64C19.8273 42.64 20.014 42.7093 20.1526 42.848C20.302 42.976 20.3766 43.152 20.3766 43.376V47.376C20.6433 46.928 21.0006 46.5867 21.4486 46.352C21.8966 46.1173 22.4086 46 22.9846 46ZM34.0914 52.032C34.2407 52.032 34.3634 52.0907 34.4594 52.208C34.5554 52.3253 34.6034 52.4747 34.6034 52.656C34.6034 52.9653 34.4114 53.2267 34.0274 53.44C33.654 53.6533 33.2434 53.8187 32.7954 53.936C32.358 54.0533 31.9367 54.112 31.5314 54.112C30.294 54.112 29.318 53.7547 28.6034 53.04C27.8887 52.3147 27.5314 51.328 27.5314 50.08C27.5314 49.28 27.686 48.5707 27.9954 47.952C28.3154 47.3333 28.758 46.8533 29.3234 46.512C29.8994 46.1707 30.55 46 31.2754 46C32.3207 46 33.1474 46.336 33.7554 47.008C34.3634 47.68 34.6674 48.5867 34.6674 49.728C34.6674 50.1547 34.4754 50.368 34.0914 50.368H29.1474C29.254 52.0213 30.0487 52.848 31.5314 52.848C31.926 52.848 32.2674 52.7947 32.5554 52.688C32.8434 52.5813 33.1474 52.4427 33.4674 52.272C33.4994 52.2507 33.5847 52.208 33.7234 52.144C33.8727 52.0693 33.9954 52.032 34.0914 52.032ZM31.3074 47.184C30.6887 47.184 30.1927 47.3813 29.8194 47.776C29.446 48.1707 29.222 48.7253 29.1474 49.44H33.2754C33.2434 48.7147 33.0567 48.16 32.7154 47.776C32.3847 47.3813 31.9154 47.184 31.3074 47.184ZM40.5441 46.032C41.0561 46 41.3121 46.2187 41.3121 46.688C41.3121 46.9227 41.2535 47.0987 41.1361 47.216C41.0188 47.3333 40.8161 47.4027 40.5281 47.424L40.0481 47.472C39.3761 47.536 38.8748 47.7707 38.5441 48.176C38.2241 48.5813 38.0641 49.072 38.0641 49.648V53.312C38.0641 53.568 37.9895 53.76 37.8401 53.888C37.6908 54.016 37.4988 54.08 37.2641 54.08C37.0295 54.08 36.8321 54.016 36.6721 53.888C36.5228 53.76 36.4481 53.568 36.4481 53.312V46.8C36.4481 46.5547 36.5228 46.368 36.6721 46.24C36.8321 46.1013 37.0295 46.032 37.2641 46.032C37.4775 46.032 37.6535 46.1013 37.7921 46.24C37.9415 46.368 38.0161 46.5493 38.0161 46.784V47.552C38.2295 47.0827 38.5388 46.7253 38.9441 46.48C39.3495 46.2347 39.8081 46.0907 40.3201 46.048L40.5441 46.032ZM45.5406 46C46.5753 46 47.3433 46.2613 47.8446 46.784C48.3566 47.3067 48.6126 48.1013 48.6126 49.168V53.312C48.6126 53.5573 48.5433 53.7493 48.4046 53.888C48.266 54.016 48.074 54.08 47.8286 54.08C47.594 54.08 47.4073 54.0107 47.2686 53.872C47.13 53.7333 47.0606 53.5467 47.0606 53.312V52.72C46.858 53.168 46.554 53.5147 46.1486 53.76C45.754 53.9947 45.29 54.112 44.7566 54.112C44.2446 54.112 43.7753 54.0107 43.3486 53.808C42.9326 53.5947 42.602 53.3067 42.3566 52.944C42.1113 52.5813 41.9886 52.1707 41.9886 51.712C41.978 51.136 42.122 50.688 42.4206 50.368C42.7193 50.0373 43.2046 49.8027 43.8766 49.664C44.5486 49.5147 45.482 49.44 46.6766 49.44H47.0446V48.976C47.0446 48.3787 46.922 47.9467 46.6766 47.68C46.4313 47.4133 46.0366 47.28 45.4926 47.28C45.1193 47.28 44.7673 47.328 44.4366 47.424C44.106 47.52 43.7433 47.6587 43.3486 47.84C43.0606 48 42.858 48.08 42.7406 48.08C42.5806 48.08 42.4473 48.0213 42.3406 47.904C42.2446 47.7867 42.1966 47.6373 42.1966 47.456C42.1966 47.296 42.2393 47.1573 42.3246 47.04C42.4206 46.912 42.57 46.7893 42.7726 46.672C43.146 46.4693 43.5833 46.3093 44.0846 46.192C44.586 46.064 45.0713 46 45.5406 46ZM45.0446 52.912C45.6313 52.912 46.1113 52.7147 46.4846 52.32C46.858 51.9147 47.0446 51.3973 47.0446 50.768V50.352H46.7566C45.9246 50.352 45.2846 50.3893 44.8366 50.464C44.3886 50.5387 44.0686 50.6667 43.8766 50.848C43.6846 51.0187 43.5886 51.2693 43.5886 51.6C43.5886 51.984 43.7273 52.2987 44.0046 52.544C44.282 52.7893 44.6286 52.912 45.0446 52.912ZM55.0151 46C55.6871 46 56.2845 46.1707 56.8071 46.512C57.3405 46.8533 57.7511 47.3333 58.0391 47.952C58.3378 48.5707 58.4871 49.2853 58.4871 50.096C58.4871 50.896 58.3431 51.6 58.0551 52.208C57.7671 52.816 57.3565 53.2853 56.8231 53.616C56.3005 53.9467 55.6978 54.112 55.0151 54.112C54.4285 54.112 53.9111 53.9893 53.4631 53.744C53.0151 53.488 52.6738 53.1253 52.4391 52.656V56.224C52.4391 56.448 52.3645 56.624 52.2151 56.752C52.0765 56.8907 51.8898 56.96 51.6551 56.96C51.4098 56.96 51.2071 56.8907 51.0471 56.752C50.8978 56.6133 50.8231 56.4267 50.8231 56.192V46.816C50.8231 46.5813 50.8978 46.3947 51.0471 46.256C51.1965 46.1067 51.3938 46.032 51.6391 46.032C51.8738 46.032 52.0658 46.1067 52.2151 46.256C52.3645 46.3947 52.4391 46.5813 52.4391 46.816V47.472C52.6738 47.0027 53.0151 46.64 53.4631 46.384C53.9111 46.128 54.4285 46 55.0151 46ZM54.6311 52.832C55.3351 52.832 55.8791 52.5973 56.2631 52.128C56.6471 51.648 56.8391 50.9707 56.8391 50.096C56.8391 49.2107 56.6418 48.5227 56.2471 48.032C55.8631 47.5413 55.3245 47.296 54.6311 47.296C53.9271 47.296 53.3831 47.536 52.9991 48.016C52.6258 48.496 52.4391 49.1787 52.4391 50.064C52.4391 50.9493 52.6258 51.632 52.9991 52.112C53.3831 52.592 53.9271 52.832 54.6311 52.832ZM65.7189 46.512C65.7829 46.352 65.8735 46.2347 65.9909 46.16C66.1189 46.0853 66.2522 46.048 66.3909 46.048C66.5935 46.048 66.7695 46.1173 66.9189 46.256C67.0789 46.3947 67.1589 46.56 67.1589 46.752C67.1589 46.8587 67.1375 46.96 67.0949 47.056L62.6469 56.496C62.5829 56.6453 62.4869 56.7573 62.3589 56.832C62.2415 56.9173 62.1135 56.96 61.9749 56.96C61.7829 56.96 61.6069 56.896 61.4469 56.768C61.2975 56.64 61.2229 56.48 61.2229 56.288C61.2229 56.2027 61.2495 56.096 61.3029 55.968L62.4069 53.616L59.3189 47.056C59.2762 46.9707 59.2549 46.8747 59.2549 46.768C59.2549 46.5653 59.3402 46.3947 59.5109 46.256C59.6815 46.1173 59.8735 46.048 60.0869 46.048C60.4069 46.048 60.6362 46.1973 60.7749 46.496L63.2549 52L65.7189 46.512Z" fill="white"/>
</svg>
