<svg width="15" height="15" viewBox="0 0 15 15" fill="none" xmlns="http://www.w3.org/2000/svg">
<path d="M14.7696 7.5C14.7696 3.48633 11.5147 0.2314 7.50102 0.2314C3.48735 0.2314 0.232422 3.48633 0.232422 7.5C0.232422 11.5137 3.48735 14.7686 7.50102 14.7686C11.5147 14.7686 14.7696 11.5137 14.7696 7.5Z" fill="white"/>
<path d="M11.5047 5.06539C11.3348 4.62307 10.9861 4.69334 10.6082 4.76956C10.3826 4.81636 9.37774 5.10933 7.79273 6.7852C7.13355 7.47952 6.70005 8.03318 6.41292 8.45512C6.23714 8.24124 6.0379 8.00972 5.82698 7.80178C5.17948 7.15428 4.45587 6.70899 4.42657 6.69136C4.12479 6.50688 3.72928 6.60061 3.54183 6.90525C3.35723 7.20703 3.45096 7.60254 3.75274 7.78999C3.75858 7.79297 4.37965 8.17681 4.91294 8.71285C5.4578 9.25781 5.95298 9.99607 5.95882 10.0049C6.07887 10.1865 6.28108 10.292 6.49497 10.292C6.53011 10.292 6.56822 10.289 6.60621 10.2832C6.85821 10.2393 7.05745 10.0518 7.11891 9.80564C7.12188 9.79981 7.37674 9.0937 8.72154 7.67578C9.80552 6.53023 10.5291 6.16699 10.781 6.06743C10.784 6.06743 10.784 6.06743 10.7898 6.06743C10.7898 6.06743 10.7986 6.06446 10.8133 6.05564C10.8572 6.03813 10.8807 6.03218 10.8807 6.03218C10.8689 6.03516 10.8631 6.03516 10.8631 6.03516V6.03218C10.9803 5.9824 11.1971 5.88867 11.2 5.8857C11.5252 5.74517 11.6336 5.3936 11.5047 5.06539Z" fill="#236387"/>
</svg>
