<svg width="40" height="40" viewBox="0 0 40 40" fill="none" xmlns="http://www.w3.org/2000/svg">
<path d="M40 20C40 30.2692 32.2692 38.7231 22.3077 39.8692C21.5538 39.9538 20.7769 40 20 40C18.6846 40 17.4 39.8692 16.1538 39.6231C6.94615 37.8385 0 29.7308 0 20C0 8.95385 8.95385 0 20 0C31.0462 0 40 8.95385 40 20Z" fill="url(#paint0_linear)"/>
<path d="M28.113 24.3214L27.5513 25.75C27.2261 26.5857 26.3835 27.1429 25.4448 27.1429H22.3478V39.8786C21.6235 39.9571 20.877 40 20.1304 40C18.8665 40 17.6322 39.8786 16.4348 39.65V27.1429H14.2543C13.0052 27.1429 12 26.1857 12 25V23.5714C12 22.3857 13.0052 21.4286 14.2543 21.4286H16.4348V17.1429C16.4348 13.2071 19.7535 10 23.8261 10H26.0435C27.677 10 29 11.2786 29 12.8571C29 14.4357 27.677 15.7143 26.0435 15.7143H23.8261C23.013 15.7143 22.3478 16.3571 22.3478 17.1429V21.4286H26.0065C27.5809 21.4286 28.6674 22.9214 28.113 24.3214Z" fill="white"/>
<defs>
<linearGradient id="paint0_linear" x1="20" y1="48.7231" x2="20" y2="0.597691" gradientUnits="userSpaceOnUse">
<stop stop-color="#155CDE"/>
<stop offset="0.278" stop-color="#1F7FE5"/>
<stop offset="0.569" stop-color="#279CEB"/>
<stop offset="0.82" stop-color="#2CAFEF"/>
<stop offset="1" stop-color="#2EB5F0"/>
</linearGradient>
</defs>
</svg>
