<svg width="40" height="40" viewBox="0 0 40 40" fill="none" xmlns="http://www.w3.org/2000/svg">
<mask id="mask0" mask-type="alpha" maskUnits="userSpaceOnUse" x="0" y="0" width="40" height="40">
<circle cx="20" cy="20" r="20" fill="#C4C4C4"/>
</mask>
<g mask="url(#mask0)">
<path d="M42.375 44.98L21.751 43.98C18.3135 43.98 2.375 47.4175 2.375 43.98L-7.74805 18.98C-7.74805 15.5425 1.81328 -0.52002 5.25078 -0.52002L46.752 -2.02002C50.1895 -2.02002 45.126 11.1675 45.126 14.605V30.855C45.126 34.2925 45.8125 44.98 42.375 44.98Z" fill="url(#paint0_radial)"/>
<path d="M20 11.5C22.875 11.5 23.1875 11.5 24.3125 11.5625C25.375 11.625 25.9375 11.8125 26.3125 11.9375C26.8125 12.125 27.1875 12.375 27.5625 12.75C27.9375 13.125 28.1875 13.5 28.375 14C28.5 14.375 28.6875 14.9375 28.75 16C28.75 17.0625 28.75 17.375 28.75 20.25C28.75 23.125 28.75 23.4375 28.6875 24.5625C28.625 25.625 28.4375 26.1875 28.3125 26.5625C28.125 27.0625 27.875 27.4375 27.5 27.8125C27.125 28.1875 26.75 28.4375 26.25 28.625C25.875 28.75 25.3125 28.9375 24.25 29C23.1875 29 22.875 29 20 29C17.125 29 16.8125 29 15.6875 28.9375C14.625 28.875 14.0625 28.6875 13.6875 28.5625C13.1875 28.375 12.8125 28.125 12.4375 27.75C12.0625 27.375 11.8125 27 11.625 26.5C11.5 26.125 11.3125 25.5625 11.25 24.5C11.25 23.4375 11.25 23.125 11.25 20.25C11.25 17.375 11.25 17.0625 11.3125 15.9375C11.375 14.875 11.5625 14.3125 11.6875 13.9375C11.875 13.4375 12.125 13.0625 12.5 12.6875C12.875 12.3125 13.25 12.0625 13.75 11.875C14.125 11.75 14.6875 11.5625 15.75 11.5C16.8125 11.5 17.125 11.5 20 11.5ZM20 9.625C17.125 9.625 16.75 9.625 15.625 9.6875C14.5 9.75 13.75 9.9375 13.0625 10.1875C12.375 10.4375 11.75 10.8125 11.1875 11.4375C10.625 12.0625 10.25 12.625 9.9375 13.3125C9.6875 14 9.5 14.75 9.4375 15.875C9.375 17 9.375 17.375 9.375 20.25C9.375 23.125 9.375 23.5 9.4375 24.625C9.5 25.75 9.6875 26.5 9.9375 27.1875C10.1875 27.875 10.5625 28.5 11.1875 29.0625C11.75 29.625 12.375 30 13.0625 30.3125C13.75 30.5625 14.5 30.75 15.625 30.8125C16.75 30.875 17.125 30.875 20 30.875C22.875 30.875 23.25 30.875 24.375 30.8125C25.5 30.75 26.25 30.5625 26.9375 30.3125C27.625 30.0625 28.25 29.6875 28.8125 29.0625C29.375 28.5 29.75 27.875 30.0625 27.1875C30.3125 26.5 30.5 25.75 30.5625 24.625C30.625 23.5 30.625 23.125 30.625 20.25C30.625 17.375 30.625 17 30.5625 15.875C30.5 14.75 30.3125 14 30.0625 13.3125C29.8125 12.625 29.4375 12 28.8125 11.4375C28.1875 10.875 27.625 10.5 26.9375 10.1875C26.25 9.9375 25.5 9.75 24.375 9.6875C23.25 9.625 22.875 9.625 20 9.625Z" fill="white"/>
<path d="M20 14.625C16.875 14.625 14.375 17.125 14.375 20.25C14.375 23.375 16.875 25.875 20 25.875C23.125 25.875 25.625 23.375 25.625 20.25C25.625 17.125 23.125 14.625 20 14.625ZM20 24C17.9375 24 16.25 22.3125 16.25 20.25C16.25 18.1875 17.9375 16.5 20 16.5C22.0625 16.5 23.75 18.1875 23.75 20.25C23.75 22.3125 22.0625 24 20 24Z" fill="white"/>
<path d="M25.625 15.875C26.3154 15.875 26.875 15.3154 26.875 14.625C26.875 13.9346 26.3154 13.375 25.625 13.375C24.9346 13.375 24.375 13.9346 24.375 14.625C24.375 15.3154 24.9346 15.875 25.625 15.875Z" fill="white"/>
</g>
<defs>
<radialGradient id="paint0_radial" cx="0" cy="0" r="1" gradientUnits="userSpaceOnUse" gradientTransform="translate(11.5681 41.4348) rotate(-49.945) scale(43.5285 28.7542)">
<stop offset="0.073" stop-color="#EACC7B"/>
<stop offset="0.184" stop-color="#ECAA59"/>
<stop offset="0.307" stop-color="#EF802E"/>
<stop offset="0.358" stop-color="#EF6D3A"/>
<stop offset="0.46" stop-color="#F04B50"/>
<stop offset="0.516" stop-color="#F03E58"/>
<stop offset="0.689" stop-color="#DB359E"/>
<stop offset="0.724" stop-color="#CE37A4"/>
<stop offset="0.789" stop-color="#AC3CB4"/>
<stop offset="0.877" stop-color="#7544CF"/>
<stop offset="0.98" stop-color="#2B4FF2"/>
</radialGradient>
</defs>
</svg>
