<svg width="40" height="40" viewBox="0 0 40 40" fill="none" xmlns="http://www.w3.org/2000/svg">
<path d="M40 20C40 31.045 31.045 40 20 40C8.955 40 0 31.045 0 20C0 8.955 8.955 0 20 0C31.045 0 40 8.955 40 20Z" fill="url(#paint0_linear)"/>
<path opacity="0.05" d="M8.43247 19.5551C15.2283 16.4759 23.21 13.1351 24.4391 12.6517C27.1491 11.5859 28.3308 12.6751 28.1458 14.4126C27.9183 16.5417 26.84 22.7376 26.1766 27.1767C25.7883 29.7742 24.3816 30.5701 22.7941 29.5626C21.59 28.7984 17.45 26.0876 16.3608 25.1609C15.6183 24.5292 15.1008 23.8209 15.6275 23.0992C15.7816 22.8884 16.1758 22.4634 16.395 22.2517C17.4941 21.1867 17.3458 20.9576 16.0166 21.9084C15.8583 22.0217 14.94 22.6876 14.5625 22.9392C13.6375 23.5559 12.7866 23.5892 11.3441 23.0992C10.1641 22.6984 9.0308 22.3892 8.3158 22.0801C7.32831 21.6526 6.94997 20.2267 8.43247 19.5551Z" fill="black"/>
<path opacity="0.07" d="M9.02852 19.6594C15.3385 16.8385 23.0985 13.606 24.2335 13.1485C26.9535 12.0502 27.9543 12.7019 27.6618 14.8244C27.3902 16.7894 26.426 22.8694 25.7502 26.9452C25.3518 29.3444 24.1885 29.8727 22.6735 28.8927C21.7243 28.281 17.9043 25.7644 16.9777 25.0319C16.261 24.466 15.5185 23.8127 16.386 22.8669C16.676 22.551 18.2777 21.0052 19.4752 19.8552C20.1693 19.1877 19.9218 18.8585 19.0843 19.4319C17.5485 20.4844 15.036 22.1502 14.5877 22.4527C13.7335 23.0277 12.931 23.166 11.5344 22.7269C10.4335 22.3802 9.37018 22.0444 8.81602 21.8285C7.57768 21.3485 7.56102 20.3152 9.02852 19.6594Z" fill="black"/>
<path d="M9.62702 19.7641C15.452 17.2016 22.9895 14.0774 24.0304 13.6449C26.7595 12.5133 27.597 12.7299 27.1795 15.2366C26.8795 17.0383 26.0145 23.0024 25.3245 26.7149C24.9154 28.9166 23.997 29.1774 22.5537 28.2249C21.8595 27.7666 18.3554 25.4491 17.5945 24.9049C16.9004 24.4091 15.9429 23.8124 17.1437 22.6374C17.5712 22.2191 20.372 19.5441 22.5545 17.4624C22.8404 17.1891 22.4812 16.7399 22.1512 16.9591C19.2095 18.9099 15.1312 21.6174 14.612 21.9699C13.8279 22.5024 13.0745 22.7466 11.7229 22.3583C10.7012 22.0649 9.70369 21.7149 9.31535 21.5816C7.81952 21.0683 8.17452 20.4033 9.62702 19.7641Z" fill="white"/>
<defs>
<linearGradient id="paint0_linear" x1="5.858" y1="5.858" x2="34.142" y2="34.142" gradientUnits="userSpaceOnUse">
<stop stop-color="#33BEF0"/>
<stop offset="1" stop-color="#0A85D9"/>
</linearGradient>
</defs>
</svg>
