<svg width="40" height="40" viewBox="0 0 40 40" fill="none" xmlns="http://www.w3.org/2000/svg">
<path d="M20 40C31.0457 40 40 31.0457 40 20C40 8.9543 31.0457 0 20 0C8.9543 0 0 8.9543 0 20C0 31.0457 8.9543 40 20 40Z" fill="#6F3FAA"/>
<path d="M30.5795 14.0566L30.573 14.0302C30.0386 11.8698 27.6294 9.55166 25.4169 9.06939L25.392 9.06424C21.8134 8.38158 18.1848 8.38158 14.607 9.06424L14.5813 9.06939C12.3696 9.55166 9.96031 11.8699 9.42523 14.0302L9.4193 14.0566C8.75867 17.0735 8.75867 20.1332 9.4193 23.1502L9.42523 23.1766C9.93758 25.2447 12.1673 27.4564 14.2973 28.0646V30.4762C14.2973 31.3491 15.3609 31.7778 15.9658 31.1478L18.4091 28.6081C18.9391 28.6377 19.4694 28.6542 19.9995 28.6542C21.8008 28.6542 23.603 28.4838 25.3919 28.1426L25.4168 28.1374C27.6293 27.6552 30.0385 25.3369 30.5729 23.1767L30.5795 23.1503C31.2401 20.1332 31.2401 17.0737 30.5795 14.0566ZM28.6459 22.7128C28.2891 24.1222 26.4598 25.8744 25.0064 26.1981C23.1037 26.56 21.1858 26.7146 19.2698 26.6616C19.2317 26.6605 19.1951 26.6753 19.1686 26.7027C18.8966 26.9817 17.3846 28.5341 17.3846 28.5341L15.4871 30.4816C15.3484 30.6263 15.1046 30.5278 15.1046 30.3281V26.3331C15.1046 26.2671 15.0575 26.2111 14.9927 26.1983C14.9923 26.1981 14.992 26.1981 14.9916 26.1981C13.5381 25.8743 11.7095 24.1221 11.3521 22.7127C10.7575 19.9856 10.7575 17.2211 11.3521 14.4941C11.7095 13.0846 13.5381 11.3324 14.9916 11.0087C18.3147 10.3767 21.6841 10.3767 25.0065 11.0087C26.4606 11.3324 28.2891 13.0846 28.6459 14.4941C29.2412 17.2212 29.2412 19.9857 28.6459 22.7128Z" fill="white"/>
<path d="M23.1605 24.557C22.9371 24.4891 22.7242 24.4435 22.5263 24.3616C20.477 23.5113 18.5911 22.4145 17.0973 20.7331C16.2477 19.777 15.5828 18.6976 15.0208 17.5552C14.7542 17.0135 14.5296 16.4506 14.3006 15.8913C14.0919 15.3813 14.3994 14.8544 14.7231 14.47C15.027 14.1093 15.418 13.8334 15.8414 13.6299C16.1719 13.4711 16.4978 13.5627 16.7392 13.8427C17.2609 14.4484 17.7403 15.0849 18.1283 15.787C18.367 16.2188 18.3015 16.7466 17.8689 17.0404C17.7637 17.1118 17.668 17.1957 17.5701 17.2763C17.4841 17.347 17.4034 17.4184 17.3445 17.5141C17.2369 17.6892 17.2317 17.8959 17.3009 18.0863C17.8343 19.552 18.7333 20.6918 20.2087 21.3058C20.4448 21.404 20.6818 21.5183 20.9538 21.4866C21.4093 21.4334 21.5568 20.9338 21.876 20.6727C22.188 20.4177 22.5867 20.4143 22.9227 20.627C23.2589 20.8398 23.5847 21.0681 23.9086 21.2989C24.2266 21.5255 24.543 21.747 24.8362 22.0053C25.1183 22.2537 25.2154 22.5795 25.0566 22.9164C24.7659 23.5337 24.3429 24.047 23.7328 24.3749C23.5605 24.4672 23.3548 24.4971 23.1605 24.557C22.9371 24.4891 23.3548 24.4971 23.1605 24.557Z" fill="white"/>
<path d="M20.0045 12.9239C22.6849 12.9991 24.8866 14.7779 25.3584 17.4279C25.4388 17.8795 25.4674 18.341 25.5031 18.7994C25.5182 18.9921 25.409 19.1752 25.201 19.1778C24.9862 19.1804 24.8895 19.0006 24.8755 18.808C24.8479 18.4266 24.8288 18.0434 24.7762 17.6652C24.4988 15.6684 22.9066 14.0165 20.9191 13.662C20.6199 13.6087 20.314 13.5947 20.0109 13.5629C19.8195 13.5428 19.5687 13.5313 19.5263 13.2931C19.4907 13.0935 19.6591 12.9346 19.8492 12.9244C19.9007 12.9213 19.9527 12.9238 20.0045 12.9239C22.6851 12.9991 19.9527 12.9238 20.0045 12.9239Z" fill="white"/>
<path d="M24.078 18.2044C24.0736 18.2379 24.0713 18.3166 24.0516 18.3906C23.9805 18.6597 23.5724 18.6934 23.4786 18.4219C23.4507 18.3414 23.4466 18.2496 23.4464 18.1629C23.4455 17.5953 23.3221 17.0281 23.0358 16.5341C22.7415 16.0263 22.2918 15.5997 21.7645 15.3413C21.4456 15.1853 21.1009 15.0881 20.7513 15.0304C20.5986 15.0051 20.4442 14.9899 20.2907 14.9685C20.1047 14.9426 20.0053 14.8241 20.0142 14.6408C20.0224 14.4691 20.148 14.3454 20.3352 14.3561C20.9502 14.391 21.5445 14.5241 22.0914 14.8136C23.2034 15.4026 23.8388 16.3321 24.0242 17.5735C24.0326 17.6298 24.046 17.6854 24.0503 17.7418C24.0608 17.881 24.0674 18.0205 24.078 18.2044C24.0736 18.2378 24.0674 18.0205 24.078 18.2044Z" fill="white"/>
<path d="M22.4118 18.1399C22.1876 18.144 22.0676 18.0198 22.0444 17.8143C22.0284 17.671 22.0156 17.5257 21.9814 17.3862C21.914 17.1114 21.768 16.8569 21.5369 16.6885C21.4278 16.6091 21.3042 16.5512 21.1747 16.5137C21.0103 16.4661 20.8393 16.4792 20.6753 16.4391C20.4971 16.3954 20.3986 16.251 20.4266 16.0839C20.4521 15.9317 20.6 15.813 20.7664 15.8251C21.8056 15.9001 22.5483 16.4373 22.6543 17.6608C22.6619 17.7471 22.6707 17.8383 22.6515 17.921C22.6186 18.0622 22.5139 18.133 22.4118 18.1399C22.1875 18.1439 22.5139 18.133 22.4118 18.1399Z" fill="white"/>
<path d="M30.5787 14.0566L30.5721 14.0302C30.2726 12.8191 29.3837 11.5587 28.2707 10.5996L26.7661 11.933C27.6608 12.6459 28.4273 13.6335 28.6452 14.494C29.2405 17.2211 29.2405 19.9855 28.6452 22.7127C28.2884 24.1222 26.4591 25.8744 25.0057 26.1981C23.103 26.56 21.1851 26.7146 19.2691 26.6616C19.231 26.6605 19.1944 26.6753 19.1679 26.7027C18.8959 26.9817 17.3839 28.5341 17.3839 28.5341L15.4864 30.4816C15.3477 30.6262 15.1039 30.5279 15.1039 30.3281V26.3331C15.1039 26.2671 15.0568 26.2111 14.992 26.1983C14.9916 26.1983 14.9913 26.1981 14.9909 26.1981C14.1648 26.0141 13.218 25.3686 12.4887 24.5871L11.002 25.9045C11.9305 26.9146 13.128 27.7312 14.2963 28.0648V30.4763C14.2963 31.3492 15.36 31.7779 15.9648 31.148L18.4082 28.6082C18.9382 28.6378 19.4683 28.6544 19.9985 28.6544C21.7998 28.6544 23.602 28.484 25.3909 28.1427L25.4159 28.1377C27.6284 27.6554 30.0376 25.3373 30.572 23.1769L30.5785 23.1505C31.2392 20.1332 31.2392 17.0737 30.5787 14.0566Z" fill="#D1D1D1"/>
<path d="M23.1615 24.5567C23.3557 24.4969 22.938 24.4888 23.1615 24.5567V24.5567Z" fill="white"/>
<path d="M24.8372 22.0049C24.544 21.7467 24.2273 21.5251 23.9095 21.2985C23.5856 21.0677 23.2598 20.8394 22.9237 20.6266C22.5877 20.4139 22.189 20.4173 21.877 20.6723C21.5577 20.9334 21.4103 21.433 20.9548 21.4863C20.6828 21.5179 20.4457 21.4035 20.2096 21.3054C19.3019 20.9277 18.6131 20.3502 18.0926 19.6211L16.9863 20.6016C17.0239 20.6451 17.0598 20.6898 17.098 20.7327C18.5919 22.4141 20.4779 23.5109 22.527 24.3612C22.7248 24.4432 22.9378 24.4888 23.1613 24.5566C22.9378 24.4887 23.3556 24.4968 23.1613 24.5566C23.3556 24.4968 23.5613 24.4667 23.7337 24.3744C24.3439 24.0466 24.7668 23.5331 25.0574 22.9159C25.2163 22.5791 25.1192 22.2533 24.8372 22.0049Z" fill="#D1D1D1"/>
<path d="M20.0121 12.9252C20.0096 12.9252 20.0072 12.9249 20.0047 12.9249C20.0023 12.9247 20.0054 12.9249 20.0121 12.9252Z" fill="white"/>
<path d="M20.0059 12.9238C20.0081 12.9238 20.0103 12.9241 20.0126 12.9241C20.1613 12.9294 22.5807 12.996 20.0059 12.9238Z" fill="white"/>
<path d="M23.8505 14.5186L23.3789 14.9366C24.1201 15.6577 24.6312 16.6134 24.7773 17.6651C24.8298 18.0434 24.8491 18.4264 24.8766 18.8079C24.8906 19.0006 24.9872 19.1804 25.2022 19.1779C25.4102 19.1753 25.5194 18.9922 25.5043 18.7994C25.4684 18.3411 25.4399 17.8794 25.3595 17.4279C25.153 16.2679 24.615 15.2749 23.8505 14.5186Z" fill="#D1D1D1"/>
<path d="M24.0258 17.5732C23.8907 16.6686 23.5155 15.9305 22.8922 15.3682L22.4219 15.785C22.6651 16.0008 22.8755 16.2543 23.0375 16.5339C23.3238 17.0279 23.4472 17.5951 23.4481 18.1628C23.4483 18.2495 23.4524 18.3412 23.4803 18.4219C23.5743 18.6936 23.9823 18.6599 24.0534 18.3907C24.073 18.3164 24.0753 18.2378 24.0798 18.2044C24.0753 18.2379 24.069 18.0206 24.0798 18.2044C24.069 18.0206 24.0624 17.8811 24.0519 17.7417C24.0477 17.685 24.0342 17.6294 24.0258 17.5732Z" fill="#D1D1D1"/>
<path d="M24.0781 18.2047C24.0675 18.0208 24.0737 18.238 24.0781 18.2047V18.2047Z" fill="white"/>
<path d="M22.4115 18.1404C22.415 18.1401 22.4184 18.1377 22.4217 18.1372C22.4123 18.1372 22.3977 18.1375 22.3828 18.1382C22.3925 18.1385 22.4013 18.1405 22.4115 18.1404Z" fill="white"/>
<path d="M22.4106 18.1403C22.4005 18.1405 22.3916 18.1386 22.3819 18.1382C22.3334 18.1399 22.2833 18.1433 22.4106 18.1403Z" fill="white"/>
<path d="M22.4204 18.1372C22.4169 18.1377 22.4135 18.1401 22.4102 18.1404C22.4364 18.138 22.4341 18.1372 22.4204 18.1372Z" fill="white"/>
<path d="M21.9377 16.2129L21.459 16.6373C21.4854 16.6533 21.5112 16.67 21.5363 16.6882C21.7674 16.8566 21.9134 17.1111 21.9808 17.3859C22.015 17.5254 22.0277 17.6705 22.0438 17.814C22.0659 18.0103 22.1774 18.131 22.3826 18.1381C22.3975 18.1377 22.4122 18.1373 22.4215 18.1373C22.5202 18.1263 22.6192 18.0571 22.6509 17.9205C22.67 17.838 22.6613 17.7466 22.6537 17.6603C22.5941 16.9763 22.3356 16.507 21.9377 16.2129Z" fill="#D1D1D1"/>
</svg>
