<svg width="23" height="22" viewBox="0 0 23 22" fill="none" xmlns="http://www.w3.org/2000/svg">
<g clip-path="url(#clip0)">
<path d="M14.3071 16.8179C13.6528 16.1636 13.1142 15.4206 12.7072 14.6128C12.5129 14.2142 12.0976 13.9563 11.704 13.9602L9.59052 13.6655C8.9463 11.5464 8.94575 9.77842 9.58997 7.67944L11.6504 7.38859C12.0959 7.38859 12.5018 7.1424 12.7117 6.74159C13.1208 5.92822 13.6596 5.1841 14.3127 4.53095C14.7744 4.06928 14.7744 3.3179 14.3127 2.85622L12.3588 0.902366C11.8972 0.440691 11.1458 0.440691 10.6841 0.902366C5.29765 6.28884 5.29765 15.0544 10.6841 20.4408C11.1458 20.9025 11.8972 20.9025 12.3588 20.4408L14.3071 18.4926C14.7688 18.0309 14.7688 17.2795 14.3071 16.8179Z" fill="#EDED34"/>
</g>
<defs>
<clipPath id="clip0">
<rect width="15" height="15" fill="white" transform="translate(11.5215 0.0650024) rotate(45)"/>
</clipPath>
</defs>
</svg>
