<svg width="27" height="27" viewBox="0 0 27 27" fill="none" xmlns="http://www.w3.org/2000/svg">
<g clip-path="url(#clip0)">
<path d="M17.0304 21.2853C16.2017 20.4565 15.5193 19.5154 15.0038 18.4922C14.7578 17.9873 14.2317 17.6606 13.7332 17.6656L11.0561 17.2923C10.2401 14.6081 10.2394 12.3687 11.0554 9.70996L13.6653 9.34154C14.2296 9.34154 14.7437 9.02971 15.0095 8.52202C15.5278 7.49175 16.2102 6.54919 17.0375 5.72187C17.6223 5.13708 17.6223 4.18534 17.0375 3.60055L14.5626 1.12566C13.9778 0.540875 13.0261 0.540875 12.4413 1.12566C5.61842 7.94853 5.61842 19.0515 12.4413 25.8744C13.0261 26.4592 13.9778 26.4592 14.5626 25.8744L17.0304 23.4066C17.6152 22.8218 17.6152 21.8701 17.0304 21.2853Z" fill="white"/>
</g>
<defs>
<clipPath id="clip0">
<rect width="19" height="19" fill="white" transform="translate(13.502 0.0650024) rotate(45)"/>
</clipPath>
</defs>
</svg>
