<svg width="95" height="95" viewBox="0 0 95 95" fill="none" xmlns="http://www.w3.org/2000/svg">
<path d="M95 47.5C95 73.7335 73.7335 95 47.5 95C21.2665 95 0 73.7335 0 47.5C0 21.2665 21.2665 0 47.5 0C73.7335 0 95 21.2665 95 47.5Z" fill="#967C9A"/>
<circle cx="47.5329" cy="47.9265" r="41.863" fill="white"/>
<path d="M44.8828 41.5H62.4609C62.6474 41.5 62.8263 41.4259 62.9581 41.2941C63.09 41.1622 63.1641 40.9834 63.1641 40.7969C63.1641 40.6104 63.09 40.4316 62.9581 40.2997C62.8263 40.1678 62.6474 40.0938 62.4609 40.0938H44.8828C44.6963 40.0938 44.5175 40.1678 44.3856 40.2997C44.2538 40.4316 44.1797 40.6104 44.1797 40.7969C44.1797 40.9834 44.2538 41.1622 44.3856 41.2941C44.5175 41.4259 44.6963 41.5 44.8828 41.5Z" fill="black"/>
<path d="M37.7837 40.6666L36.2215 42.1602L35.5878 41.5265C35.5229 41.4598 35.4453 41.4066 35.3596 41.3701C35.2739 41.3336 35.1819 41.3145 35.0887 41.3139C34.9956 41.3132 34.9032 41.3311 34.8171 41.3665C34.7309 41.4018 34.6526 41.4539 34.5868 41.5198C34.5209 41.5857 34.4688 41.664 34.4335 41.7501C34.3981 41.8363 34.3802 41.9286 34.3809 42.0218C34.3815 42.1149 34.4006 42.207 34.4372 42.2927C34.4737 42.3783 34.5269 42.4559 34.5936 42.5209L35.7133 43.6407C35.8433 43.7706 36.0189 43.8445 36.2026 43.8466C36.3864 43.8487 36.5636 43.7787 36.6964 43.6517L38.7555 41.683C38.8229 41.6193 38.877 41.543 38.9148 41.4583C38.9526 41.3737 38.9732 41.2824 38.9756 41.1897C38.9779 41.0971 38.9619 41.0049 38.9285 40.9184C38.8951 40.8319 38.8449 40.7529 38.7809 40.6859C38.7168 40.619 38.6401 40.5653 38.5553 40.528C38.4704 40.4908 38.379 40.4707 38.2863 40.4689C38.1936 40.4671 38.1015 40.4836 38.0153 40.5176C37.929 40.5515 37.8503 40.6022 37.7837 40.6666Z" fill="black"/>
<path d="M36.6803 37.3867C35.7365 37.3867 34.8138 37.6666 34.0291 38.191C33.2443 38.7153 32.6326 39.4607 32.2714 40.3326C31.9103 41.2046 31.8158 42.1642 31.9999 43.0899C32.1841 44.0156 32.6386 44.8659 33.306 45.5333C33.9734 46.2007 34.8237 46.6551 35.7494 46.8393C36.6751 47.0234 37.6346 46.9289 38.5066 46.5677C39.3786 46.2064 40.1239 45.5948 40.6482 44.81C41.1726 44.0252 41.4524 43.1026 41.4524 42.1587C41.451 40.8935 40.9478 39.6806 40.0531 38.7859C39.1585 37.8913 37.9455 37.3881 36.6803 37.3867ZM36.6803 45.5246C36.0146 45.5246 35.3639 45.3272 34.8103 44.9573C34.2568 44.5875 33.8254 44.0618 33.5707 43.4468C33.3159 42.8317 33.2493 42.155 33.3791 41.5021C33.509 40.8492 33.8296 40.2494 34.3003 39.7787C34.771 39.308 35.3708 38.9874 36.0237 38.8575C36.6766 38.7277 37.3533 38.7943 37.9684 39.0491C38.5834 39.3038 39.1091 39.7352 39.4789 40.2887C39.8488 40.8423 40.0462 41.493 40.0462 42.1587C40.0453 43.0512 39.6904 43.9068 39.0594 44.5379C38.4284 45.169 37.5728 45.524 36.6803 45.525V45.5246Z" fill="black"/>
<path d="M44.8828 53.2188H62.4609C62.6474 53.2188 62.8263 53.1447 62.9581 53.0128C63.09 52.8809 63.1641 52.7021 63.1641 52.5156C63.1641 52.3291 63.09 52.1503 62.9581 52.0184C62.8263 51.8866 62.6474 51.8125 62.4609 51.8125H44.8828C44.6963 51.8125 44.5175 51.8866 44.3856 52.0184C44.2538 52.1503 44.1797 52.3291 44.1797 52.5156C44.1797 52.7021 44.2538 52.8809 44.3856 53.0128C44.5175 53.1447 44.6963 53.2188 44.8828 53.2188Z" fill="black"/>
<path d="M37.7837 52.3854L36.2215 53.8789L35.5878 53.2453C35.5229 53.1785 35.4453 53.1254 35.3596 53.0889C35.2739 53.0524 35.1819 53.0332 35.0887 53.0326C34.9956 53.032 34.9032 53.0499 34.8171 53.0852C34.7309 53.1206 34.6526 53.1727 34.5868 53.2386C34.5209 53.3044 34.4688 53.3827 34.4335 53.4689C34.3981 53.5551 34.3802 53.6474 34.3809 53.7405C34.3815 53.8337 34.4006 53.9257 34.4372 54.0114C34.4737 54.0971 34.5269 54.1747 34.5936 54.2396L35.7133 55.3595C35.8433 55.4894 36.0189 55.5633 36.2026 55.5654C36.3864 55.5674 36.5636 55.4975 36.6964 55.3705L38.7555 53.4017C38.8229 53.3381 38.877 53.2617 38.9148 53.1771C38.9526 53.0924 38.9732 53.0011 38.9756 52.9085C38.9779 52.8158 38.9619 52.7236 38.9285 52.6372C38.8951 52.5507 38.8449 52.4717 38.7809 52.4047C38.7168 52.3377 38.6401 52.284 38.5553 52.2468C38.4704 52.2095 38.379 52.1894 38.2863 52.1876C38.1936 52.1858 38.1015 52.2024 38.0153 52.2363C37.929 52.2703 37.8503 52.3209 37.7837 52.3854Z" fill="black"/>
<path d="M36.6803 49.1055C35.7365 49.1055 34.8138 49.3854 34.0291 49.9097C33.2443 50.4341 32.6326 51.1794 32.2714 52.0514C31.9103 52.9234 31.8158 53.8829 31.9999 54.8086C32.1841 55.7343 32.6386 56.5846 33.306 57.252C33.9734 57.9194 34.8237 58.3739 35.7494 58.558C36.6751 58.7421 37.6346 58.6476 38.5066 58.2864C39.3786 57.9252 40.1239 57.3135 40.6482 56.5287C41.1726 55.7439 41.4524 54.8213 41.4524 53.8775C41.451 52.6123 40.9478 51.3993 40.0531 50.5047C39.1585 49.6101 37.9455 49.1069 36.6803 49.1055ZM36.6803 57.2433C36.0146 57.2433 35.3639 57.0459 34.8103 56.6761C34.2568 56.3062 33.8254 55.7805 33.5707 55.1655C33.3159 54.5505 33.2493 53.8737 33.3791 53.2208C33.509 52.5679 33.8296 51.9682 34.3003 51.4974C34.771 51.0267 35.3708 50.7061 36.0237 50.5763C36.6766 50.4464 37.3533 50.5131 37.9684 50.7678C38.5834 51.0226 39.1091 51.454 39.4789 52.0075C39.8488 52.561 40.0462 53.2118 40.0462 53.8775C40.0453 54.7699 39.6904 55.6256 39.0594 56.2567C38.4284 56.8878 37.5728 57.2428 36.6803 57.2438V57.2433Z" fill="black"/>
<path d="M37.7837 64.1041L36.2215 65.5977L35.5878 64.964C35.5229 64.8973 35.4453 64.8441 35.3596 64.8076C35.2739 64.7711 35.1819 64.752 35.0887 64.7513C34.9956 64.7507 34.9032 64.7686 34.8171 64.804C34.7309 64.8393 34.6526 64.8914 34.5868 64.9573C34.5209 65.0232 34.4688 65.1015 34.4335 65.1876C34.3981 65.2738 34.3802 65.3661 34.3809 65.4593C34.3815 65.5524 34.4006 65.6445 34.4372 65.7302C34.4737 65.8158 34.5269 65.8934 34.5936 65.9584L35.7133 67.0782C35.8433 67.2081 36.0189 67.282 36.2026 67.2841C36.3864 67.2862 36.5636 67.2162 36.6964 67.0892L38.7555 65.1205C38.8229 65.0568 38.877 64.9805 38.9148 64.8958C38.9526 64.8112 38.9732 64.7199 38.9756 64.6272C38.9779 64.5346 38.9619 64.4424 38.9285 64.3559C38.8951 64.2694 38.8449 64.1904 38.7809 64.1234C38.7168 64.0565 38.6401 64.0028 38.5553 63.9655C38.4704 63.9283 38.379 63.9082 38.2863 63.9064C38.1936 63.9046 38.1015 63.9211 38.0153 63.9551C37.929 63.989 37.8503 64.0397 37.7837 64.1041Z" fill="black"/>
<path d="M36.6803 60.8242C35.7365 60.8242 34.8138 61.1041 34.0291 61.6285C33.2443 62.1528 32.6326 62.8982 32.2714 63.7702C31.9103 64.6422 31.8158 65.6017 31.9999 66.5274C32.1841 67.4531 32.6386 68.3034 33.306 68.9708C33.9734 69.6382 34.8237 70.0927 35.7494 70.2768C36.6751 70.4609 37.6346 70.3664 38.5066 70.0052C39.3786 69.644 40.1239 69.0323 40.6482 68.2475C41.1726 67.4627 41.4524 66.5401 41.4524 65.5962C41.451 64.331 40.9478 63.1181 40.0531 62.2234C39.1585 61.3288 37.9455 60.8256 36.6803 60.8242ZM36.6803 68.9621C36.0146 68.9621 35.3639 68.7647 34.8103 68.3948C34.2568 68.025 33.8254 67.4993 33.5707 66.8843C33.3159 66.2692 33.2493 65.5925 33.3791 64.9396C33.509 64.2867 33.8296 63.6869 34.3003 63.2162C34.771 62.7455 35.3708 62.4249 36.0237 62.295C36.6766 62.1652 37.3533 62.2318 37.9684 62.4866C38.5834 62.7413 39.1091 63.1727 39.4789 63.7262C39.8488 64.2798 40.0462 64.9305 40.0462 65.5962C40.0453 66.4887 39.6904 67.3443 39.0594 67.9755C38.4284 68.6066 37.5728 68.9616 36.6803 68.9626V68.9621Z" fill="black"/>
<path d="M44.8828 43.8438H54.2578C54.4443 43.8438 54.6231 43.7697 54.755 43.6378C54.8869 43.5059 54.9609 43.3271 54.9609 43.1406C54.9609 42.9541 54.8869 42.7753 54.755 42.6434C54.6231 42.5116 54.4443 42.4375 54.2578 42.4375H44.8828C44.6963 42.4375 44.5175 42.5116 44.3856 42.6434C44.2538 42.7753 44.1797 42.9541 44.1797 43.1406C44.1797 43.3271 44.2538 43.5059 44.3856 43.6378C44.5175 43.7697 44.6963 43.8438 44.8828 43.8438Z" fill="black"/>
<path d="M44.8828 55.5625H54.2578C54.4443 55.5625 54.6231 55.4884 54.755 55.3566C54.8869 55.2247 54.9609 55.0459 54.9609 54.8594C54.9609 54.6729 54.8869 54.4941 54.755 54.3622C54.6231 54.2303 54.4443 54.1562 54.2578 54.1562H44.8828C44.6963 54.1562 44.5175 54.2303 44.3856 54.3622C44.2538 54.4941 44.1797 54.6729 44.1797 54.8594C44.1797 55.0459 44.2538 55.2247 44.3856 55.3566C44.5175 55.4884 44.6963 55.5625 44.8828 55.5625Z" fill="black"/>
<path d="M30.9141 30.0273C30.7276 30.0273 30.5487 30.1014 30.4169 30.2333C30.285 30.3651 30.2109 30.544 30.2109 30.7305V31.4688C30.2109 31.6552 30.285 31.8341 30.4169 31.9659C30.5487 32.0978 30.7276 32.1719 30.9141 32.1719C31.1005 32.1719 31.2794 32.0978 31.4112 31.9659C31.5431 31.8341 31.6172 31.6552 31.6172 31.4688V30.7305C31.6172 30.544 31.5431 30.3651 31.4112 30.2333C31.2794 30.1014 31.1005 30.0273 30.9141 30.0273Z" fill="black"/>
<path d="M30.9141 32.9911C30.7276 32.9911 30.5487 33.0652 30.4169 33.197C30.285 33.3289 30.2109 33.5077 30.2109 33.6942V40.4911C30.2109 40.6776 30.285 40.8564 30.4169 40.9883C30.5487 41.1201 30.7276 41.1942 30.9141 41.1942C31.1005 41.1942 31.2794 41.1201 31.4112 40.9883C31.5431 40.8564 31.6172 40.6776 31.6172 40.4911V33.6942C31.6172 33.6019 31.599 33.5104 31.5637 33.4251C31.5283 33.3398 31.4765 33.2623 31.4112 33.197C31.346 33.1317 31.2684 33.0799 31.1831 33.0446C31.0978 33.0093 31.0064 32.9911 30.9141 32.9911Z" fill="black"/>
<path d="M77.5864 50.3711C77.116 50.2724 76.6307 50.268 76.1586 50.3581C75.6865 50.4482 75.2369 50.6311 74.8359 50.8961L67.5938 55.6523V29.2686C67.5938 26.9424 65.6821 25.0938 63.3558 25.0938H58.9219V22.9111C58.9219 22.7247 58.8478 22.5458 58.7159 22.4139C58.5841 22.2821 58.4052 22.208 58.2188 22.208C58.0323 22.208 57.8534 22.2821 57.7216 22.4139C57.5897 22.5458 57.5156 22.7247 57.5156 22.9111V25.0938H51.5391V22.9111C51.5391 22.7247 51.465 22.5458 51.3331 22.4139C51.2013 22.2821 51.0224 22.208 50.8359 22.208C50.6495 22.208 50.4706 22.2821 50.3388 22.4139C50.2069 22.5458 50.1328 22.7247 50.1328 22.9111V25.0938H44.2734V22.9111C44.2734 22.7247 44.1994 22.5458 44.0675 22.4139C43.9356 22.2821 43.7568 22.208 43.5703 22.208C43.3838 22.208 43.205 22.2821 43.0731 22.4139C42.9413 22.5458 42.8672 22.7247 42.8672 22.9111V25.0938H36.8906V22.9111C36.8906 22.7247 36.8165 22.5458 36.6847 22.4139C36.5528 22.2821 36.374 22.208 36.1875 22.208C36.001 22.208 35.8222 22.2821 35.6903 22.4139C35.5585 22.5458 35.4844 22.7247 35.4844 22.9111V25.0938H31.7152C31.1647 25.0898 30.6188 25.1949 30.1091 25.403C29.5995 25.6112 29.1361 25.9181 28.7456 26.3062C28.3552 26.6944 28.0455 27.156 27.8344 27.6644C27.6233 28.1728 27.5149 28.718 27.5156 29.2686V71.5732C27.5156 73.8995 29.3889 75.8359 31.7152 75.8359H63.3558C65.6821 75.8359 67.5938 73.8995 67.5938 71.5732V64.4055L78.8538 57.0109C79.4586 56.6136 79.9319 56.0459 80.214 55.3796C80.4961 54.7133 80.5742 53.9783 80.4386 53.2676C80.3029 52.5568 79.9595 51.9023 79.4519 51.3867C78.9442 50.8711 78.295 50.5177 77.5864 50.3711ZM58.179 29.497C58.4249 29.497 58.6653 29.5699 58.8698 29.7065C59.0743 29.8431 59.2336 30.0373 59.3277 30.2645C59.4218 30.4917 59.4465 30.7417 59.3985 30.9829C59.3505 31.2241 59.2321 31.4456 59.0582 31.6195C58.8843 31.7934 58.6628 31.9118 58.4216 31.9598C58.1804 32.0078 57.9304 31.9831 57.7032 31.889C57.476 31.7949 57.2818 31.6356 57.1452 31.4311C57.0086 31.2266 56.9357 30.9862 56.9357 30.7403C56.936 30.4107 57.0671 30.0946 57.3002 29.8615C57.5333 29.6284 57.8494 29.4973 58.179 29.497ZM50.8521 29.497C51.098 29.497 51.3384 29.5699 51.5429 29.7066C51.7473 29.8432 51.9067 30.0374 52.0007 30.2646C52.0948 30.4918 52.1194 30.7418 52.0714 30.983C52.0235 31.2241 51.905 31.4457 51.7311 31.6195C51.5572 31.7934 51.3357 31.9118 51.0945 31.9598C50.8533 32.0078 50.6033 31.9831 50.3762 31.889C50.149 31.7949 49.9548 31.6355 49.8182 31.4311C49.6816 31.2266 49.6086 30.9862 49.6086 30.7403C49.609 30.4106 49.7401 30.0946 49.9733 29.8615C50.2064 29.6284 50.5224 29.4973 50.8521 29.497ZM43.525 29.497C43.7709 29.497 44.0112 29.57 44.2156 29.7067C44.4201 29.8433 44.5794 30.0375 44.6734 30.2647C44.7675 30.4919 44.7921 30.7419 44.744 30.9831C44.696 31.2243 44.5776 31.4458 44.4037 31.6196C44.2298 31.7935 44.0082 31.9119 43.767 31.9598C43.5259 32.0078 43.2759 31.9831 43.0487 31.889C42.8215 31.7949 42.6274 31.6355 42.4908 31.431C42.3542 31.2266 42.2813 30.9862 42.2813 30.7403C42.2816 30.4106 42.4128 30.0945 42.646 29.8614C42.8791 29.6283 43.1953 29.4972 43.525 29.497ZM36.198 29.497C36.444 29.497 36.6843 29.5699 36.8888 29.7066C37.0932 29.8432 37.2526 30.0374 37.3467 30.2646C37.4408 30.4918 37.4654 30.7418 37.4174 30.983C37.3694 31.2241 37.251 31.4457 37.0771 31.6195C36.9032 31.7934 36.6816 31.9118 36.4405 31.9598C36.1993 32.0078 35.9493 31.9831 35.7221 31.889C35.4949 31.7949 35.3007 31.6355 35.1641 31.4311C35.0275 31.2266 34.9546 30.9862 34.9546 30.7403C34.9549 30.4106 35.0861 30.0946 35.3192 29.8615C35.5523 29.6284 35.8684 29.4973 36.198 29.497ZM66.1875 71.5732C66.184 72.3255 65.8853 73.0463 65.3557 73.5805C64.8261 74.1147 64.108 74.4197 63.3558 74.4297H31.7152C30.1641 74.4297 28.9219 73.1241 28.9219 71.5732V29.2686C28.921 28.9026 28.9928 28.5402 29.1332 28.2023C29.2736 27.8644 29.4797 27.5577 29.7396 27.3002C29.9995 27.0426 30.3079 26.8392 30.6471 26.7018C30.9862 26.5645 31.3493 26.4959 31.7152 26.5H35.4844V28.1861C34.4297 28.495 33.5432 29.5227 33.5432 30.7408C33.5432 31.0887 33.6117 31.4331 33.7448 31.7545C33.8779 32.0759 34.0731 32.3679 34.319 32.6139C34.565 32.8599 34.8571 33.055 35.1785 33.1882C35.4998 33.3213 35.8443 33.3898 36.1922 33.3898C36.5401 33.3898 36.8845 33.3213 37.2059 33.1882C37.5273 33.055 37.8193 32.8599 38.0653 32.6139C38.3113 32.3679 38.5064 32.0759 38.6396 31.7545C38.7727 31.4331 38.8412 31.0887 38.8412 30.7408C38.8495 30.1579 38.6618 29.5892 38.308 29.1259C37.9543 28.6626 37.4551 28.3316 36.8906 28.1861V26.5H42.8672V28.1861C42.3008 28.3307 41.7991 28.6609 41.4423 29.124C41.0855 29.587 40.894 30.1562 40.8984 30.7408C40.8984 31.4442 41.1779 32.1189 41.6753 32.6163C42.1727 33.1138 42.8474 33.3932 43.5509 33.3932C44.2543 33.3932 44.929 33.1138 45.4264 32.6163C45.9238 32.1189 46.2033 31.4442 46.2033 30.7408C46.1933 30.1655 46.0011 29.6083 45.6543 29.1492C45.3075 28.6902 44.824 28.353 44.2734 28.1861V26.5H50.1328V28.1861C49.0781 28.495 48.1944 29.5227 48.1944 30.7408C48.1944 31.4432 48.4734 32.1168 48.9701 32.6135C49.4668 33.1102 50.1404 33.3892 50.8429 33.3892C51.5453 33.3892 52.2189 33.1102 52.7156 32.6135C53.2123 32.1168 53.4913 31.4432 53.4913 30.7408C53.4992 30.1578 53.3111 29.589 52.9571 29.1258C52.6031 28.6625 52.1037 28.3316 51.5391 28.1861V26.5H57.5156V28.1861C56.9494 28.3308 56.4481 28.661 56.0916 29.1241C55.7352 29.5872 55.5443 30.1564 55.5493 30.7408C55.5493 31.4442 55.8288 32.1187 56.3261 32.6161C56.8235 33.1134 57.498 33.3929 58.2014 33.3929C58.9048 33.3929 59.5793 33.1134 60.0767 32.6161C60.5741 32.1187 60.8535 31.4442 60.8535 30.7408C60.8535 29.5232 59.9766 28.4955 58.9219 28.1861V26.5H63.3558C64.9065 26.5 66.1875 27.7178 66.1875 29.2686V56.5757L63.5464 58.3101C63.4653 58.3634 63.3961 58.4329 63.3432 58.5143C63.2903 58.5957 63.2548 58.6871 63.2389 58.7829C63.2231 58.8787 63.2272 58.9767 63.2511 59.0708C63.275 59.1649 63.3182 59.253 63.3778 59.3296C63.4864 59.4689 63.6434 59.5623 63.8177 59.5911C63.992 59.6199 64.1707 59.5821 64.3184 59.4851L74.7736 52.6192L75.624 53.9137L57.9103 65.5469L57.0597 64.2523L60.3878 62.0671C60.465 62.0164 60.5314 61.951 60.5833 61.8747C60.6352 61.7983 60.6716 61.7125 60.6903 61.622C60.7091 61.5316 60.7098 61.4384 60.6925 61.3477C60.6752 61.257 60.6403 61.1706 60.5896 61.0934C60.5389 61.0162 60.4735 60.9498 60.3971 60.8979C60.3208 60.8459 60.2349 60.8096 60.1445 60.7908C60.0541 60.7721 59.9609 60.7714 59.8702 60.7886C59.7795 60.8059 59.693 60.8409 59.6159 60.8916L55.7031 63.4609C55.6959 63.4657 55.6894 63.4717 55.6821 63.4768C55.6643 63.4894 55.647 63.5021 55.6298 63.5164C55.6242 63.5211 55.6193 63.5264 55.614 63.5314H44.8828C44.6963 63.5314 44.5175 63.6054 44.3856 63.7373C44.2538 63.8692 44.1797 64.048 44.1797 64.2345C44.1797 64.421 44.2538 64.5998 44.3856 64.7317C44.5175 64.8635 44.6963 64.9376 44.8828 64.9376H54.8215L54.3236 65.8784C54.3019 65.8764 54.2801 65.8751 54.2578 65.8751H44.8828C44.6963 65.8751 44.5175 65.9492 44.3856 66.0811C44.2538 66.2129 44.1797 66.3918 44.1797 66.5782C44.1797 66.7647 44.2538 66.9436 44.3856 67.0754C44.5175 67.2073 44.6963 67.2814 44.8828 67.2814H53.5811L52.7681 68.8171C52.7114 68.9242 52.6834 69.0442 52.6867 69.1654C52.69 69.2865 52.7246 69.4048 52.7871 69.5086C52.8496 69.6125 52.9379 69.6984 53.0434 69.7581C53.1489 69.8177 53.268 69.8491 53.3892 69.8492C53.3954 69.8492 53.4016 69.8492 53.4077 69.8492L59.35 69.6934C59.3644 69.6934 59.3786 69.6906 59.3929 69.6895C59.4072 69.6883 59.4234 69.6875 59.4387 69.6851C59.4573 69.6823 59.4754 69.6775 59.4934 69.6734C59.5068 69.6702 59.5202 69.668 59.5336 69.664C59.5643 69.6548 59.5943 69.6435 59.6235 69.6302C59.6306 69.627 59.6373 69.6225 59.6443 69.6184C59.6671 69.6074 59.6892 69.5951 59.7107 69.5816C59.713 69.5801 59.7155 69.5793 59.7176 69.5778L66.1875 65.329V71.5732ZM58.0501 68.3205L54.5735 68.4115L56.1511 65.4305L58.0501 68.3205ZM59.5331 68.0166L59.4791 67.9346L58.6822 66.7224L76.3959 55.0898L77.2465 56.3841L59.5331 68.0166ZM78.4018 55.5807L75.9695 51.8788C76.2692 51.7528 76.5925 51.6926 76.9174 51.7024C77.2424 51.7122 77.5615 51.7917 77.853 51.9355C78.0219 52.0168 78.1786 52.1213 78.3186 52.246C78.5556 52.4518 78.747 52.7047 78.8808 52.9886C79.0146 53.2725 79.0877 53.5812 79.0955 53.895C79.1033 54.2087 79.0457 54.5207 78.9263 54.8109C78.8068 55.1011 78.6282 55.3633 78.4018 55.5807Z" fill="black"/>
</svg>
