<svg width="66" height="29" viewBox="0 0 66 29" fill="none" xmlns="http://www.w3.org/2000/svg">
<path d="M8.62 9.84C8.62 8.92 8.18667 8.46 7.32 8.46C7.2 8.46 7.05333 8.47333 6.88 8.5C6.70667 8.51333 6.58667 8.46667 6.52 8.36C6.41333 8.21333 6.58667 8.11333 7.04 8.06C7.2 8.03333 7.36 8.02 7.52 8.02C8.29333 8.02 8.82 8.35333 9.1 9.02C9.22 9.3 9.28 9.66 9.28 10.1C9.28 10.5267 9.09333 11.0667 8.72 11.72C8.06667 12.9067 7.04 13.7933 5.64 14.38C5.17333 14.58 4.68667 14.68 4.18 14.68C3.68667 14.68 3.17333 14.5533 2.64 14.3C1.65333 13.8333 0.966667 13.0533 0.58 11.96C0.433333 11.5333 0.36 11 0.36 10.36C0.36 9.70667 0.54 8.88667 0.9 7.9C1.72667 5.96667 3.08667 4.32 4.98 2.96C7.00667 1.49333 8.9 0.759999 10.66 0.759999C12.1533 0.759999 13.1533 1.36 13.66 2.56C13.8867 3.08 14 3.70667 14 4.44C14 4.68 13.9867 4.92667 13.96 5.18C13.8267 6.34 13.48 7.66667 12.92 9.16C12.8267 9.41333 12.78 9.58667 12.78 9.68C12.78 9.76 12.8 9.8 12.84 9.8C12.9067 9.81333 13.02 9.67333 13.18 9.38C14.1667 7.58 15.2533 5.96667 16.44 4.54C16.8267 4.07333 17.2933 3.69333 17.84 3.4C18.44 3.08 18.9733 2.92 19.44 2.92C19.92 2.92 20.2933 3.09333 20.56 3.44C20.84 3.78667 20.98 4.24667 20.98 4.82C20.98 6.16667 20.4533 8.41333 19.4 11.56C19.1867 12.1867 19.0533 12.5867 19 12.76C20.08 11.0667 21.4333 9.20667 23.06 7.18C24.7 5.14 26.1533 3.93333 27.42 3.56C27.6467 3.49333 27.8467 3.46 28.02 3.46C28.5267 3.46 28.8533 3.71333 29 4.22C29.0533 4.39333 29.08 4.59333 29.08 4.82C29.08 5.5 28.8133 6.37333 28.28 7.44C27.1867 9.62667 26.44 11.3667 26.04 12.66C25.4933 14.3667 25.22 15.5333 25.22 16.16C25.22 16.7867 25.28 17.3067 25.4 17.72C25.64 18.5467 26.2733 18.96 27.3 18.96C27.3533 18.96 27.46 18.9533 27.62 18.94C27.7933 18.94 27.8867 18.9733 27.9 19.04C27.9267 19.1067 27.88 19.1667 27.76 19.22C27.6533 19.2733 27.54 19.3 27.42 19.3C27.3133 19.3 27.2267 19.2933 27.16 19.28C25.0533 19.0667 24 17.9867 24 16.04C24 15.3333 24.14 14.5333 24.42 13.64C24.7133 12.7333 24.96 12.04 25.16 11.56C25.48 10.7867 26.1533 9.27333 27.18 7.02C27.54 6.18 27.72 5.54 27.72 5.1C27.72 4.66 27.5333 4.44 27.16 4.44C26.64 4.44 25.8333 4.97333 24.74 6.04C24.18 6.6 23.5733 7.28667 22.92 8.1C22.2667 8.9 21.3 10.3133 20.02 12.34C18.74 14.3533 17.9267 15.7733 17.58 16.6C17.2733 17.32 16.8667 17.68 16.36 17.68C16 17.68 15.7867 17.5533 15.72 17.3C15.68 17.1933 15.68 17.1067 15.72 17.04C15.76 16.9867 15.8867 16.7667 16.1 16.38C16.3133 15.9933 16.5333 15.5867 16.76 15.16C16.9867 14.7333 17.2533 14.1533 17.56 13.42C17.88 12.6867 18.1733 11.94 18.44 11.18C19.08 9.3 19.5133 7.36667 19.74 5.38C19.7667 5.15333 19.78 4.87333 19.78 4.54C19.78 4.19333 19.6867 3.92 19.5 3.72C19.3267 3.52 19.14 3.42 18.94 3.42C18.2867 3.42 17.5667 3.91333 16.78 4.9C15.7133 6.22 14.7867 7.52 14 8.8C13.2133 10.0667 12.6067 11.1333 12.18 12C11.7667 12.8667 11.28 13.9133 10.72 15.14C10.1733 16.3533 9.88 17 9.84 17.08C9.81333 17.16 9.76667 17.26 9.7 17.38C9.64667 17.5 9.6 17.6133 9.56 17.72C9.38667 18.1067 9.01333 18.3 8.44 18.3C8.10667 18.3 7.92667 18.1933 7.9 17.98C7.9 17.94 7.90667 17.8933 7.92 17.84C8.8 16.48 9.77333 14.42 10.84 11.66C12.2 8.16667 12.88 5.62 12.88 4.02C12.88 2.11333 12.0933 1.16 10.52 1.16C9.50667 1.16 8.22667 1.64667 6.68 2.62C5.14667 3.59333 3.87333 4.84 2.86 6.36C2.46 6.96 2.16 7.54 1.96 8.1C1.61333 9.12667 1.44 9.94 1.44 10.54C1.44 12.26 2.01333 13.3933 3.16 13.94C3.56 14.14 3.96667 14.24 4.38 14.24C5.82 14.24 7 13.46 7.92 11.9C8.38667 11.1133 8.62 10.4267 8.62 9.84ZM33.802 11.58C33.562 11.82 33.222 12.3667 32.782 13.22C32.342 14.06 32.0754 14.6933 31.982 15.12C31.902 15.5333 31.862 15.8733 31.862 16.14C31.862 16.3933 31.962 16.52 32.162 16.52C32.4154 16.52 32.7287 16.2867 33.102 15.82C33.6487 15.14 34.1887 14.2533 34.722 13.16C34.7754 13.04 34.8354 12.9733 34.902 12.96C35.0087 12.92 35.062 12.96 35.062 13.08C35.062 13.1467 35.042 13.2267 35.002 13.32C33.7754 15.8 32.742 17.04 31.902 17.04C31.5154 17.04 31.202 16.8533 30.962 16.48C30.842 16.28 30.782 16.0133 30.782 15.68C30.782 15.3467 30.8487 14.94 30.982 14.46C29.9154 16.18 28.9954 17.04 28.222 17.04C28.0087 17.04 27.8154 16.9733 27.642 16.84C27.242 16.56 27.042 16.08 27.042 15.4C27.042 14.0933 27.6087 12.7667 28.742 11.42C29.382 10.6733 30.1687 10.1867 31.102 9.96C31.3554 9.89333 31.5954 9.86 31.822 9.86C32.4354 9.86 32.9554 10.0733 33.382 10.5C33.5154 10.6467 33.5554 10.7867 33.502 10.92C33.4487 11.0533 33.3354 11.1067 33.162 11.08C33.0154 10.6 32.6954 10.36 32.202 10.36C31.6287 10.36 30.922 10.8133 30.082 11.72C29.602 12.2533 29.1554 12.88 28.742 13.6C28.222 14.4667 27.962 15.16 27.962 15.68C27.962 16.2 28.1287 16.46 28.462 16.46C29.262 16.46 30.3087 15.2333 31.602 12.78C31.8554 12.2867 32.0687 11.9533 32.242 11.78C32.4154 11.5933 32.6354 11.5 32.902 11.5C32.9554 11.5 33.0887 11.52 33.302 11.56C33.5287 11.6 33.6954 11.6067 33.802 11.58ZM36.4342 16.62C36.6076 16.6467 36.7276 16.66 36.7942 16.66C37.3276 16.66 37.8542 16.3467 38.3742 15.72C38.6542 15.3733 39.1542 14.5 39.8742 13.1C39.9009 13.0333 39.9476 13 40.0142 13C40.1342 12.9867 40.1942 13.0333 40.1942 13.14C40.1942 13.1667 40.1609 13.2467 40.0942 13.38C40.0409 13.5 39.9876 13.6267 39.9342 13.76C39.8809 13.88 39.7942 14.06 39.6742 14.3C39.5542 14.54 39.4476 14.7333 39.3542 14.88C39.2742 15.0267 39.1676 15.2067 39.0342 15.42C38.9009 15.6333 38.7676 15.8 38.6342 15.92L38.2142 16.36C37.9876 16.5867 37.7209 16.7467 37.4142 16.84C36.9209 17 36.4409 17.0133 35.9742 16.88C35.6676 17.0133 35.3942 17.08 35.1542 17.08C34.2076 17.08 33.6342 16.7067 33.4342 15.96C33.3942 15.7867 33.3742 15.58 33.3742 15.34C33.3742 15.0867 33.4542 14.8467 33.6142 14.62C33.7876 14.3933 33.9676 14.2733 34.1542 14.26C34.8342 12.9667 35.4142 11.8 35.8942 10.76C36.4276 9.62667 37.0476 9.06 37.7542 9.06C37.9409 9.06 38.1209 9.10667 38.2942 9.2C38.4809 9.28 38.5476 9.37333 38.4942 9.48C38.4542 9.58667 38.3609 9.60667 38.2142 9.54C38.0676 9.47333 37.9409 9.44 37.8342 9.44C37.7276 9.44 37.6342 9.46 37.5542 9.5C37.1009 9.71333 36.8742 10.1733 36.8742 10.88C36.8742 11.2533 36.9276 11.56 37.0342 11.8C37.1409 12.04 37.2609 12.3 37.3942 12.58C37.7009 13.2733 37.8542 13.84 37.8542 14.28C37.8542 14.72 37.7142 15.1533 37.4342 15.58C37.1542 16.0067 36.8209 16.3533 36.4342 16.62ZM35.7542 16.48C36.3409 16.0267 36.6342 15.2933 36.6342 14.28C36.6342 13.8667 36.5876 13.3 36.4942 12.58C36.4009 11.86 36.3542 11.3733 36.3542 11.12C36.3542 10.8667 36.3609 10.6933 36.3742 10.6C35.3609 12.6267 34.7342 13.86 34.4942 14.3C34.7742 14.3 34.9142 14.5 34.9142 14.9C34.9142 15.6867 35.1942 16.2133 35.7542 16.48ZM34.2542 15.94C34.2542 16.02 34.2609 16.1067 34.2742 16.2C34.3809 16.56 34.6276 16.74 35.0142 16.74C35.1742 16.74 35.3076 16.7133 35.4142 16.66C34.9209 16.3533 34.6542 15.8533 34.6142 15.16C34.3742 15.4 34.2542 15.66 34.2542 15.94ZM41.5514 16.62C41.7247 16.6467 41.8447 16.66 41.9114 16.66C42.4447 16.66 42.9714 16.3467 43.4914 15.72C43.7714 15.3733 44.2714 14.5 44.9914 13.1C45.0181 13.0333 45.0647 13 45.1314 13C45.2514 12.9867 45.3114 13.0333 45.3114 13.14C45.3114 13.1667 45.2781 13.2467 45.2114 13.38C45.1581 13.5 45.1047 13.6267 45.0514 13.76C44.9981 13.88 44.9114 14.06 44.7914 14.3C44.6714 14.54 44.5647 14.7333 44.4714 14.88C44.3914 15.0267 44.2847 15.2067 44.1514 15.42C44.0181 15.6333 43.8847 15.8 43.7514 15.92L43.3314 16.36C43.1047 16.5867 42.8381 16.7467 42.5314 16.84C42.0381 17 41.5581 17.0133 41.0914 16.88C40.7847 17.0133 40.5114 17.08 40.2714 17.08C39.3247 17.08 38.7514 16.7067 38.5514 15.96C38.5114 15.7867 38.4914 15.58 38.4914 15.34C38.4914 15.0867 38.5714 14.8467 38.7314 14.62C38.9047 14.3933 39.0847 14.2733 39.2714 14.26C39.9514 12.9667 40.5314 11.8 41.0114 10.76C41.5447 9.62667 42.1647 9.06 42.8714 9.06C43.0581 9.06 43.2381 9.10667 43.4114 9.2C43.5981 9.28 43.6647 9.37333 43.6114 9.48C43.5714 9.58667 43.4781 9.60667 43.3314 9.54C43.1847 9.47333 43.0581 9.44 42.9514 9.44C42.8447 9.44 42.7514 9.46 42.6714 9.5C42.2181 9.71333 41.9914 10.1733 41.9914 10.88C41.9914 11.2533 42.0447 11.56 42.1514 11.8C42.2581 12.04 42.3781 12.3 42.5114 12.58C42.8181 13.2733 42.9714 13.84 42.9714 14.28C42.9714 14.72 42.8314 15.1533 42.5514 15.58C42.2714 16.0067 41.9381 16.3533 41.5514 16.62ZM40.8714 16.48C41.4581 16.0267 41.7514 15.2933 41.7514 14.28C41.7514 13.8667 41.7047 13.3 41.6114 12.58C41.5181 11.86 41.4714 11.3733 41.4714 11.12C41.4714 10.8667 41.4781 10.6933 41.4914 10.6C40.4781 12.6267 39.8514 13.86 39.6114 14.3C39.8914 14.3 40.0314 14.5 40.0314 14.9C40.0314 15.6867 40.3114 16.2133 40.8714 16.48ZM39.3714 15.94C39.3714 16.02 39.3781 16.1067 39.3914 16.2C39.4981 16.56 39.7447 16.74 40.1314 16.74C40.2914 16.74 40.4247 16.7133 40.5314 16.66C40.0381 16.3533 39.7714 15.8533 39.7314 15.16C39.4914 15.4 39.3714 15.66 39.3714 15.94ZM51.0286 11.58C50.7886 11.82 50.4486 12.3667 50.0086 13.22C49.5686 14.06 49.3019 14.6933 49.2086 15.12C49.1286 15.5333 49.0886 15.8733 49.0886 16.14C49.0886 16.3933 49.1886 16.52 49.3886 16.52C49.6419 16.52 49.9553 16.2867 50.3286 15.82C50.8753 15.14 51.4153 14.2533 51.9486 13.16C52.0019 13.04 52.0619 12.9733 52.1286 12.96C52.2353 12.92 52.2886 12.96 52.2886 13.08C52.2886 13.1467 52.2686 13.2267 52.2286 13.32C51.0019 15.8 49.9686 17.04 49.1286 17.04C48.7419 17.04 48.4286 16.8533 48.1886 16.48C48.0686 16.28 48.0086 16.0133 48.0086 15.68C48.0086 15.3467 48.0753 14.94 48.2086 14.46C47.1419 16.18 46.2219 17.04 45.4486 17.04C45.2353 17.04 45.0419 16.9733 44.8686 16.84C44.4686 16.56 44.2686 16.08 44.2686 15.4C44.2686 14.0933 44.8353 12.7667 45.9686 11.42C46.6086 10.6733 47.3953 10.1867 48.3286 9.96C48.5819 9.89333 48.8219 9.86 49.0486 9.86C49.6619 9.86 50.1819 10.0733 50.6086 10.5C50.7419 10.6467 50.7819 10.7867 50.7286 10.92C50.6753 11.0533 50.5619 11.1067 50.3886 11.08C50.2419 10.6 49.9219 10.36 49.4286 10.36C48.8553 10.36 48.1486 10.8133 47.3086 11.72C46.8286 12.2533 46.3819 12.88 45.9686 13.6C45.4486 14.4667 45.1886 15.16 45.1886 15.68C45.1886 16.2 45.3553 16.46 45.6886 16.46C46.4886 16.46 47.5353 15.2333 48.8286 12.78C49.0819 12.2867 49.2953 11.9533 49.4686 11.78C49.6419 11.5933 49.8619 11.5 50.1286 11.5C50.1819 11.5 50.3153 11.52 50.5286 11.56C50.7553 11.6 50.9219 11.6067 51.0286 11.58ZM50.5608 23.32C49.3074 23.32 48.6808 22.8067 48.6808 21.78C48.6808 20.9267 49.2608 20.16 50.4208 19.48C51.4074 18.9067 52.6674 18.3667 54.2008 17.86C54.9074 17.6333 55.4208 17.4533 55.7408 17.32C56.0874 16.3067 56.2608 15.2 56.2608 14C56.2608 13.76 56.2474 13.58 56.2208 13.46C55.8474 14.22 55.3341 15 54.6808 15.8C53.9074 16.76 53.1408 17.1333 52.3808 16.92C51.6874 16.6267 51.3408 16.0533 51.3408 15.2C51.3408 14.0533 51.9141 12.7933 53.0608 11.42C53.6874 10.6733 54.4208 10.2 55.2608 10C55.4874 9.93333 55.7141 9.9 55.9408 9.9C56.5408 9.9 57.1274 10.1 57.7008 10.5C57.9141 10.6733 58.0208 10.82 58.0208 10.94C58.0208 11.06 57.9808 11.18 57.9008 11.3C57.8208 11.4067 57.7341 11.42 57.6408 11.34C57.5608 11.2467 57.5074 11.16 57.4808 11.08C57.3074 10.5867 57.0274 10.34 56.6408 10.34C55.9341 10.34 55.1408 10.8333 54.2608 11.82C53.7674 12.38 53.3408 12.98 52.9808 13.62C52.5408 14.42 52.3208 15.04 52.3208 15.48C52.3208 15.9067 52.4541 16.1933 52.7208 16.34C52.8141 16.38 52.9074 16.4 53.0008 16.4C53.3074 16.4 53.6874 16.1933 54.1408 15.78C54.6074 15.3533 55.0341 14.82 55.4208 14.18C55.8208 13.5267 56.0741 13.02 56.1808 12.66C56.2874 12.3 56.4141 12.0733 56.5608 11.98C56.7208 11.8867 56.8941 11.8333 57.0808 11.82C57.2674 11.8067 57.3941 11.7733 57.4608 11.72C57.5674 12.32 57.6208 13.0267 57.6208 13.84C57.6208 14.64 57.4808 15.5533 57.2008 16.58C57.8141 16.14 58.2474 15.7467 58.5008 15.4C58.7674 15.0533 58.9741 14.74 59.1208 14.46C59.2808 14.18 59.4208 13.9067 59.5408 13.64C59.6608 13.36 59.7408 13.18 59.7808 13.1C59.8208 13.02 59.8874 12.9733 59.9808 12.96C60.0741 12.9333 60.1208 12.9733 60.1208 13.08C60.1208 13.1467 60.1008 13.2267 60.0608 13.32C59.4741 14.5333 58.9808 15.4133 58.5808 15.96C58.1941 16.4933 57.6608 16.92 56.9808 17.24C56.6608 18.1467 56.1941 19.0467 55.5808 19.94C54.9808 20.8333 54.2208 21.62 53.3008 22.3C52.3808 22.98 51.4674 23.32 50.5608 23.32ZM49.1008 22.16C49.1008 22.6667 49.4274 22.92 50.0808 22.92C50.4674 22.92 50.9008 22.8067 51.3808 22.58C51.8741 22.3533 52.2808 22.12 52.6008 21.88C53.1474 21.44 53.7474 20.7867 54.4008 19.92C54.8941 19.2267 55.2741 18.5533 55.5408 17.9L54.8408 18.14C52.7608 18.86 51.2941 19.5 50.4408 20.06C49.8141 20.4733 49.4008 21 49.2008 21.64C49.1341 21.84 49.1008 22.0133 49.1008 22.16ZM60.6528 13.92C60.4661 14.3733 60.3728 14.88 60.3728 15.44C60.3728 15.8133 60.4528 16.1133 60.6128 16.34C60.7861 16.5533 61.0261 16.66 61.3328 16.66C62.5461 16.66 63.6461 15.52 64.6328 13.24C64.7261 13.0267 64.8395 12.9333 64.9728 12.96C65.0261 12.9733 65.0528 13.0067 65.0528 13.06C65.0528 13.1133 64.8995 13.4667 64.5928 14.12C64.2995 14.76 63.9995 15.28 63.6928 15.68C63.0128 16.6133 62.1728 17.08 61.1728 17.08C60.6395 17.08 60.1861 16.9067 59.8128 16.56C59.4395 16.2133 59.2528 15.74 59.2528 15.14C59.2528 14.54 59.3928 13.9067 59.6728 13.24C59.9661 12.56 60.3595 11.9333 60.8528 11.36C61.3461 10.7733 61.9128 10.3467 62.5528 10.08C62.8595 9.94667 63.1528 9.88 63.4328 9.88C63.7128 9.88 63.9728 9.96 64.2128 10.12C64.4395 10.3067 64.5528 10.5133 64.5528 10.74C64.5528 11.54 64.0728 12.3067 63.1128 13.04C62.8195 13.2667 62.4061 13.4733 61.8728 13.66C61.3395 13.8333 60.9328 13.92 60.6528 13.92ZM64.0128 10.72C64.0128 10.4533 63.9061 10.32 63.6928 10.32C63.3195 10.32 62.7528 10.78 61.9928 11.7C61.5395 12.26 61.1395 12.8867 60.7928 13.58C61.0195 13.58 61.3461 13.5 61.7728 13.34C62.2128 13.18 62.5928 12.9667 62.9128 12.7C63.6461 12.0733 64.0128 11.4133 64.0128 10.72Z" fill="white"/>
<path d="M11.09 26.28C11.2367 26.2933 11.34 26.3333 11.4 26.4C11.4667 26.46 11.5 26.5467 11.5 26.66C11.5 26.7933 11.4467 26.8967 11.34 26.97C11.24 27.0367 11.09 27.0633 10.89 27.05L10.62 27.03C10.08 26.99 9.67667 26.8267 9.41 26.54C9.14333 26.2467 9.01 25.8167 9.01 25.25V22.9H8.41C8.11667 22.9 7.97 22.77 7.97 22.51C7.97 22.39 8.00667 22.2967 8.08 22.23C8.16 22.1567 8.27 22.12 8.41 22.12H9.01V21.09C9.01 20.9367 9.05333 20.8167 9.14 20.73C9.23333 20.6433 9.35667 20.6 9.51 20.6C9.66333 20.6 9.78667 20.6433 9.88 20.73C9.97333 20.8167 10.02 20.9367 10.02 21.09V22.12H11.01C11.15 22.12 11.2567 22.1567 11.33 22.23C11.41 22.2967 11.45 22.39 11.45 22.51C11.45 22.6367 11.41 22.7333 11.33 22.8C11.2567 22.8667 11.15 22.9 11.01 22.9H10.02V25.32C10.02 25.6333 10.0833 25.8633 10.21 26.01C10.3433 26.1567 10.5433 26.24 10.81 26.26L11.09 26.28ZM14.8654 22C16.0254 22 16.6054 22.6567 16.6054 23.97V26.57C16.6054 26.7167 16.5587 26.8333 16.4654 26.92C16.3721 27.0067 16.2487 27.05 16.0954 27.05C15.9421 27.05 15.8187 27.0067 15.7254 26.92C15.6387 26.8333 15.5954 26.7167 15.5954 26.57V23.98C15.5954 23.58 15.5121 23.2867 15.3454 23.1C15.1854 22.9133 14.9321 22.82 14.5854 22.82C14.1787 22.82 13.8521 22.9467 13.6054 23.2C13.3587 23.4533 13.2354 23.7933 13.2354 24.22V26.57C13.2354 26.7167 13.1887 26.8333 13.0954 26.92C13.0087 27.0067 12.8887 27.05 12.7354 27.05C12.5821 27.05 12.4587 27.0067 12.3654 26.92C12.2721 26.8333 12.2254 26.7167 12.2254 26.57V20.38C12.2254 20.2333 12.2721 20.1167 12.3654 20.03C12.4654 19.9433 12.5921 19.9 12.7454 19.9C12.8921 19.9 13.0087 19.9433 13.0954 20.03C13.1887 20.11 13.2354 20.22 13.2354 20.36V22.86C13.4021 22.58 13.6254 22.3667 13.9054 22.22C14.1854 22.0733 14.5054 22 14.8654 22ZM21.8071 25.77C21.9004 25.77 21.9771 25.8067 22.0371 25.88C22.0971 25.9533 22.1271 26.0467 22.1271 26.16C22.1271 26.3533 22.0071 26.5167 21.7671 26.65C21.5338 26.7833 21.2771 26.8867 20.9971 26.96C20.7238 27.0333 20.4604 27.07 20.2071 27.07C19.4338 27.07 18.8238 26.8467 18.3771 26.4C17.9304 25.9467 17.7071 25.33 17.7071 24.55C17.7071 24.05 17.8038 23.6067 17.9971 23.22C18.1971 22.8333 18.4738 22.5333 18.8271 22.32C19.1871 22.1067 19.5938 22 20.0471 22C20.7004 22 21.2171 22.21 21.5971 22.63C21.9771 23.05 22.1671 23.6167 22.1671 24.33C22.1671 24.5967 22.0471 24.73 21.8071 24.73H18.7171C18.7838 25.7633 19.2804 26.28 20.2071 26.28C20.4538 26.28 20.6671 26.2467 20.8471 26.18C21.0271 26.1133 21.2171 26.0267 21.4171 25.92C21.4371 25.9067 21.4904 25.88 21.5771 25.84C21.6704 25.7933 21.7471 25.77 21.8071 25.77ZM20.0671 22.74C19.6804 22.74 19.3704 22.8633 19.1371 23.11C18.9038 23.3567 18.7638 23.7033 18.7171 24.15H21.2971C21.2771 23.6967 21.1604 23.35 20.9471 23.11C20.7404 22.8633 20.4471 22.74 20.0671 22.74ZM25.8401 22.02C26.1601 22 26.3201 22.1367 26.3201 22.43C26.3201 22.5767 26.2834 22.6867 26.2101 22.76C26.1367 22.8333 26.0101 22.8767 25.8301 22.89L25.5301 22.92C25.1101 22.96 24.7967 23.1067 24.5901 23.36C24.3901 23.6133 24.2901 23.92 24.2901 24.28V26.57C24.2901 26.73 24.2434 26.85 24.1501 26.93C24.0567 27.01 23.9367 27.05 23.7901 27.05C23.6434 27.05 23.5201 27.01 23.4201 26.93C23.3267 26.85 23.2801 26.73 23.2801 26.57V22.5C23.2801 22.3467 23.3267 22.23 23.4201 22.15C23.5201 22.0633 23.6434 22.02 23.7901 22.02C23.9234 22.02 24.0334 22.0633 24.1201 22.15C24.2134 22.23 24.2601 22.3433 24.2601 22.49V22.97C24.3934 22.6767 24.5867 22.4533 24.8401 22.3C25.0934 22.1467 25.3801 22.0567 25.7001 22.03L25.8401 22.02ZM28.9629 22C29.6096 22 30.0896 22.1633 30.4029 22.49C30.7229 22.8167 30.8829 23.3133 30.8829 23.98V26.57C30.8829 26.7233 30.8396 26.8433 30.7529 26.93C30.6662 27.01 30.5462 27.05 30.3929 27.05C30.2462 27.05 30.1296 27.0067 30.0429 26.92C29.9562 26.8333 29.9129 26.7167 29.9129 26.57V26.2C29.7862 26.48 29.5962 26.6967 29.3429 26.85C29.0962 26.9967 28.8062 27.07 28.4729 27.07C28.1529 27.07 27.8596 27.0067 27.5929 26.88C27.3329 26.7467 27.1262 26.5667 26.9729 26.34C26.8196 26.1133 26.7429 25.8567 26.7429 25.57C26.7362 25.21 26.8262 24.93 27.0129 24.73C27.1996 24.5233 27.5029 24.3767 27.9229 24.29C28.3429 24.1967 28.9262 24.15 29.6729 24.15H29.9029V23.86C29.9029 23.4867 29.8262 23.2167 29.6729 23.05C29.5196 22.8833 29.2729 22.8 28.9329 22.8C28.6996 22.8 28.4796 22.83 28.2729 22.89C28.0662 22.95 27.8396 23.0367 27.5929 23.15C27.4129 23.25 27.2862 23.3 27.2129 23.3C27.1129 23.3 27.0296 23.2633 26.9629 23.19C26.9029 23.1167 26.8729 23.0233 26.8729 22.91C26.8729 22.81 26.8996 22.7233 26.9529 22.65C27.0129 22.57 27.1062 22.4933 27.2329 22.42C27.4662 22.2933 27.7396 22.1933 28.0529 22.12C28.3662 22.04 28.6696 22 28.9629 22ZM28.6529 26.32C29.0196 26.32 29.3196 26.1967 29.5529 25.95C29.7862 25.6967 29.9029 25.3733 29.9029 24.98V24.72H29.7229C29.2029 24.72 28.8029 24.7433 28.5229 24.79C28.2429 24.8367 28.0429 24.9167 27.9229 25.03C27.8029 25.1367 27.7429 25.2933 27.7429 25.5C27.7429 25.74 27.8296 25.9367 28.0029 26.09C28.1762 26.2433 28.3929 26.32 28.6529 26.32ZM34.8845 22C35.3045 22 35.6778 22.1067 36.0045 22.32C36.3378 22.5333 36.5945 22.8333 36.7745 23.22C36.9611 23.6067 37.0545 24.0533 37.0545 24.56C37.0545 25.06 36.9645 25.5 36.7845 25.88C36.6045 26.26 36.3478 26.5533 36.0145 26.76C35.6878 26.9667 35.3111 27.07 34.8845 27.07C34.5178 27.07 34.1945 26.9933 33.9145 26.84C33.6345 26.68 33.4211 26.4533 33.2745 26.16V28.39C33.2745 28.53 33.2278 28.64 33.1345 28.72C33.0478 28.8067 32.9311 28.85 32.7845 28.85C32.6311 28.85 32.5045 28.8067 32.4045 28.72C32.3111 28.6333 32.2645 28.5167 32.2645 28.37V22.51C32.2645 22.3633 32.3111 22.2467 32.4045 22.16C32.4978 22.0667 32.6211 22.02 32.7745 22.02C32.9211 22.02 33.0411 22.0667 33.1345 22.16C33.2278 22.2467 33.2745 22.3633 33.2745 22.51V22.92C33.4211 22.6267 33.6345 22.4 33.9145 22.24C34.1945 22.08 34.5178 22 34.8845 22ZM34.6445 26.27C35.0845 26.27 35.4245 26.1233 35.6645 25.83C35.9045 25.53 36.0245 25.1067 36.0245 24.56C36.0245 24.0067 35.9011 23.5767 35.6545 23.27C35.4145 22.9633 35.0778 22.81 34.6445 22.81C34.2045 22.81 33.8645 22.96 33.6245 23.26C33.3911 23.56 33.2745 23.9867 33.2745 24.54C33.2745 25.0933 33.3911 25.52 33.6245 25.82C33.8645 26.12 34.2045 26.27 34.6445 26.27ZM41.5743 22.32C41.6143 22.22 41.671 22.1467 41.7443 22.1C41.8243 22.0533 41.9076 22.03 41.9943 22.03C42.121 22.03 42.231 22.0733 42.3243 22.16C42.4243 22.2467 42.4743 22.35 42.4743 22.47C42.4743 22.5367 42.461 22.6 42.4343 22.66L39.6543 28.56C39.6143 28.6533 39.5543 28.7233 39.4743 28.77C39.401 28.8233 39.321 28.85 39.2343 28.85C39.1143 28.85 39.0043 28.81 38.9043 28.73C38.811 28.65 38.7643 28.55 38.7643 28.43C38.7643 28.3767 38.781 28.31 38.8143 28.23L39.5043 26.76L37.5743 22.66C37.5476 22.6067 37.5343 22.5467 37.5343 22.48C37.5343 22.3533 37.5876 22.2467 37.6943 22.16C37.801 22.0733 37.921 22.03 38.0543 22.03C38.2543 22.03 38.3976 22.1233 38.4843 22.31L40.0343 25.75L41.5743 22.32Z" fill="white"/>
</svg>
